<?xml version="1.0" encoding="utf-8"?><!DOCTYPE svg PUBLIC "-//W3C//DTD SVG 1.1//EN" "http://www.w3.org/Graphics/SVG/1.1/DTD/svg11.dtd"><svg xmlns="http://www.w3.org/2000/svg" xmlns:xlink="http://www.w3.org/1999/xlink"><symbol viewBox="0 0 566.93 566.93" id="EnergiesCollectivesLogo" xmlns="http://www.w3.org/2000/svg"><path fill="#CAAC6F" d="M327.343 159.098c-2.041 2.313-4.992 2.101-9.688 5.089.204-.146.354-.28.457-.398 1.414-1.605-5.56-.612-8.955 2.812-2.774 2.93-6.739 4.002-10.979 4.549-4.243.571-8.739.64-12.793 1.739-2.031.56-4.254.613-6.734.937-6.385 1.392-12.743 1.622-19.203 1.26-6.471-.384-13.026-1.303-20.122-2.72-3.761-.835-6.703-3.009-9.444-4.783-1.065-.494-2.193-1.045-3.325-1.442-.56-.214-1.117-.406-1.634-.626a16.406 16.406 0 0 1-1.406-.78c-1.333-.843-2.519-1.699-3.476-2.774-.971-1.039-1.894-1.986-2.559-3.163.882 1.178 1.833 1.973 2.734 2.92.471.446.921.957 1.468 1.378a64.73 64.73 0 0 0 1.79 1.333c.371.249.566.302.636.222.266-.3-1.259-2.509-1.935-3.331-.281-.575-1.844-.113-2.144-.71-.503-.413-.9-.905-1.255-1.445-.319-.588-.604-1.208-.952-1.823-.203-.606-1.056.253-1.163-.056a5.083 5.083 0 0 1-.621-1.242c-.128-.442-.181-.901-.25-1.315-.131-.832-.247-1.522-.725-1.909-.328-.315-.668-.607-.961-.904l-.823-.889c-.297-.395-.586-.795-.796-1.27-.078-.319-.112-.688-.165-1.034a39.629 39.629 0 0 1-.464-3.425c.124-.012.253-.033.376-.044.01-.461-.095-.881-.47-1.286a25.01 25.01 0 0 1-.017-.391c.01-.008.017-.017.027-.028a.335.335 0 0 0 .078-.21l-.115-.029a26.088 26.088 0 0 1 .035-2.463l.11.018c.081 1.39.501 2.738 1.584 3.821-.179-.145-.319-.167-.397-.079-.082.094-.098.303-.021.624l.751.313c-.047-.653-.086-1.289-.267-1.866-.171-.584-.395-1.132-.968-1.622 0 0 .128-.578.234-.861-.21-.363-.586-.293-.917-.332a13.19 13.19 0 0 1 0-.867c.334.274.744.843 1.071 1.315.368.463.674.851.674.851.732 3.334 2.291 6.271 4.132 8.811-.058.326-.184.621.125.809.317.081.57.206.783.352.283.358.556.725.852 1.068l.26.41-.07-.232c.758.718 1.512 1.429 2.268 2.143.131.204.302.357.418.507.473.592.965 1.201 1.693 1.039l.451.32-.148.017.229.042c.604.487 1.347.798 2.023 1.192.302.46.595.985.957 1.419-.362-.434-.655-.959-.957-1.419.683.355 1.336.756 2.042 1.081.717.298 1.442.601 2.176.905 4.759 1.824 9.565 2.927 14.501 3.651a81.385 81.385 0 0 0 15.421.755c5.841-.291 11.441-1.127 16.851-2.346 5.387-1.214 10.579-1.88 15.758-2.913 5.167-1.029 10.316-2.412 15.388-5.108 3.91-1.943 11.666-3.336 15.592-4.37 5.709.374 4.574 6.043 4.381 6.418-.419 1.028-.883 1.79-1.407 2.385m-100.383 1.894c.081.069.184.098.323.06.437.007 1.014-.198 1.568-.309.573.524 1.567.777 2.512.593-.642-.89-1.569-.799-2.512-.593-.279-.251-.458-.562-.5-.917.042.355.221.666.5.917-.554.111-1.132.316-1.568.309-.139.038-.242.009-.323-.06m-1.225-1.009c.325-.17.526-.146.667-.027-.141-.119-.342-.143-.667.027m-5.19-5.204c.32.462.69.824 1.235.763l-1.923-1.791-.082-.136.003.014c.032.115.014.194-.032.246-.064.074-.191.096-.336.094a3.469 3.469 0 0 0-.675-.078c.139.003.432.076.675.078.267.061.527.158.774.319.111.166.229.333.361.491m-8.314-9.524l-.038.384.032.005c.034-.13.072-.265.109-.399l-.103.01zm105.423 18.932c-.158.115-.345.24-.565.372.189-.129.379-.254.565-.372m-97.389-9.844a.768.768 0 0 0-.081-.055c-.11-.18-.217-.354-.321-.529.139.191.272.37.369.528.011.019.023.037.033.056m-6.638-9.498a4.076 4.076 0 0 1-.164-.158c.052.042.108.096.164.158M244.569 115.905c-.164.2-.349.331-.559.448-.522.293-.519-.376-1.278.548-.024.03-1.013-.576-1.039-.546.293-.473.534.106-.05.651-.462-.074-1.181.161-1.726.824-.229.279-.985-.749-1.122-.309-.187.674-1.002-.208-1.314.171-.576.704-1.338.988-2.17 1.178-1.275.277-2.717.337-3.73 1.203-.492.445-1.173.547-1.822.915-1.531 1.296-3.638 2.551-5.299 3.297-1.652.741-2.604 2.275-3.968 3.532-.366.311-1.08.631-1.08.631-.494.1.106 2.933-.359 3.063-.112.066-.763-1.232-.842-1.137-.146.178-1.65.962-1.741 1.171-.092.207.384 1.789.267 1.929a.582.582 0 0 1-.04.045 1.305 1.305 0 0 1-.058.072c-.434.529.891 1.622.288 1.926.477-.497-.941-1.551-.394-2.071l.024-.024c.281-.344-1.144-.416-1.556-.26-.023.001-.039.007-.047.019-.044.053.038.212.119.369.082.157.164.313.124.365-.01.012-.026.018-.05.018-.003.005-.005.009-.01.012-.201.245 1.304 1.097.896 1.262-.023.003-.039.008-.046.018-.035.042.089.146.215.243.128.099.257.191.241.212-.003.003-.005.004-.013.005-.385.236-1.303.133-1.492.365a.148.148 0 0 0-.033.125c.012.271.035.516.072.753 0 .138-.007.27-.087.382-.099.052-.201.106-.302.161-.231-.159-.534-.302-.84-.445-.003.145.115.388.112.526.003-.138-.115-.382-.112-.526.306.143.609.286.84.445a5.516 5.516 0 0 0-1.209.883.46.46 0 0 1-.098-.099c.021.044.04.091.056.139-.246.232-.478.482-.702.734l-.075-.024c.194-.391.223-.785-.131-1.355.126.169.309.197.414.068a.348.348 0 0 0 .031-.047l-.371-.297a2.136 2.136 0 0 0-.286.275c-.203.246-.269.536.109.9l-.361.186c.086.15.363.199.593.271-.042.08-.084.158-.124.239-.421-.252-.809-.971-.809-.971.16-.575.309-1.13.52-1.657.18-.538.356-1.065.587-1.566.149-.001.306.021.352-.034.014-.017.017-.041.008-.074a.942.942 0 0 1-.167-.375l.183-.45.153-.109-.113.026.488-1c.064-.058.126-.116.187-.154.104-.073.214-.14.283-.224.086-.105.107-.241-.033-.455l.099-.174.04.078-.021-.109.427-.74c.283-.482.618-.934.943-1.416.249-.352.507-.688.771-1.012 2.068-2.516 3.543-7.038 6.289-9.015 1.682-1.236 3.235-3.138 4.831-4.396 1.695-1.339 2.36-2.426 4.602-3.372 1.739-.734 3.385-1.142 5.621-1.799 1.281-1.191 4.187-1.487 5.765-1.692 7.727 2.427 3.332 5.921 3.338 6.131-.185 1.085-1.915.762-2.209 1.12m-31.518 21.957c.058.081.134.267.231.391a2.196 2.196 0 0 0-.231-.391l-.007-.011.007.011m.91-1.498a.255.255 0 0 0-.055.164c.087.223.124.414.128.593l.145-.48.203-.462c-.167.053-.336.084-.421.185m4.343-6.396l.638-.16c.137-.28-.057-.48-.167-.702-.391.275-.75.583-1.053.951l-.079.1c-.299.362-.54.786-.702 1.281.069-.326-.139-.388-.491-.089l.047.588c.407-.24.244-1.858.564-2.162.095-.083.183-.173.261-.27.204-.244.91.843.982.463m.437-.934l.035.073.507-.342.003-.03-.545.299m-5.475 5.071l.006-.001c.136-.025.24.065.325.177.05.098.116.2.192.296-.049-.062-.109-.188-.192-.296a.674.674 0 0 1-.081-.341c-.08.058-.166.11-.25.165m2.74-2.318l.003-.004-.003.004m-.304-.908c.099.286.232.575.29.784.031.059.036.095.019.117.017-.021.013-.058-.019-.117-.057-.208-.191-.497-.29-.784m-.177 1.182l.027.035-.027-.035m.219-.274a.295.295 0 0 1 .027.004l-.027-.004m-.234.249l.016.023a.188.188 0 0 1-.016-.023m.226-.25h.003-.003m-.307.005c.042-.05.168-.029.294-.008l.007.002-.007-.002c-.126-.021-.252-.042-.294.008m.071.231c.001.004.003.005.006.008-.004-.003-.005-.004-.006-.008m-1.822 1.769a.64.64 0 0 0 .083-.081c.095-.115.112-.259-.052-.48l-.394.843a1.39 1.39 0 0 1 .184-.157l.021-.014c-.003.012-.004.024-.006.037a.938.938 0 0 0 .164-.148m2.024-2.912a.407.407 0 0 0 .199-.132c.134-.164.163-.449.069-.812-.155 0-.256.044-.317.118-.138.169-.07.496.049.826"/><path fill="#FABB00" d="M184.491 217.177a2.49 2.49 0 0 0-.868.139c-.354.001-.409-.313-.54-.627.459.183.931.344 1.408.488M186.235 217.852a7.355 7.355 0 0 0-.424-.257l.251.077.173.18zM188.136 218.775c-.456-.093-.853-.286-1.224-.502.384.045.793.192 1.224.502"/><path fill="#FABB00" d="M186.913 218.272a2.265 2.265 0 0 0-.827.062.658.658 0 0 0 .194-.139c.079-.09.092-.198-.035-.336l-.01-.007c.225.137.446.278.678.42M186.085 218.334c-.197.102-.473.168-.599.229a3.04 3.04 0 0 1 .599-.229m-.599.228a.037.037 0 0 1-.014.007c.005-.001.01-.005.014-.007M193.678 226.477c-.063.073-.247.065-.587-.059a90.76 90.76 0 0 1-6.684-2.972 327.28 327.28 0 0 1-5.228-3.573c-.522-.283-1.068-.411-1.614-.551.746.11 1.502.227 2.328.38 1.115.125 1.775 1.962 3.28 2.822.062.064.136.01.224-.089.036-.042.075-.092.115-.141.04-.051.082-.104.125-.153.157-.178.333-.306.517-.109 1.054.735 1.866 1.652 2.991 1.989.421.419 1.661-.586 2.077-.171.869.565 2.726 2.321 2.456 2.627M176.608 214.939l-.75.306c-.362-.218-.48-.428-.369-.553.055-.06.158-.101.313-.115-1.506 0-2.724-.477-3.862-1.153a5.915 5.915 0 0 0 .133-.159c.037-.047.075-.096.116-.141.139-.158.301-.286.566-.274l.519.699c1.441-.269 2.376.555 3.334 1.39M171.94 213.424l-.075.081-.649-.506.039-.013.685.438M317.215 225.529c-2.206 2.502-5.169 1.935-10.247 4.693.253-.158.431-.301.544-.429 1.251-1.42-5.588-.892-9.149 2.225-2.964 2.72-6.972 3.501-11.198 3.746-4.236.28-8.683.019-12.741.899-2.035.402-4.224.359-6.675.547-6.339 1.084-12.535 1.041-18.774.675-6.247-.356-12.538-1.113-19.256-1.602-3.559-.332-6.522-1.88-9.383-2.861-2.123-.522-4.524-.337-6.283-.617-2.753-.503-5.031-1.411-7.164-2.366 2.469.711 4.243 1.411 7.032 2.104.342.07.524.058.587-.014.281-.319-1.826-1.812-2.765-2.305-.473-.366-1.576.774-2.052.405-1.148-.242-2.097-.932-3.239-1.562-.167-.14-.3-.073-.415.057a1.868 1.868 0 0 0-.184.269c-.056.093-.107.186-.158.241-.053.059-.102.083-.154.042-1.614-.658-2.513-2.449-3.653-2.378l-2.374-.047c-.464-.058-.919-.128-1.376-.303-.266-.175-.54-.354-.814-.536a261.584 261.584 0 0 0-6.341-3.848l.065-.092c-.251-.105-.501-.22-.751-.34.753-.386 2.726-.566 2.726-.566l2.45.799 2.43.653c1.608.402 3.174.834 4.75 1.142.18.283.28.584.638.523.297-.145.575-.215.84-.241.462.087.922.174 1.378.258.151.066.305.134.458.203l.011.008c.16.138.145.26.05.366a.652.652 0 0 1-.146.124 2.88 2.88 0 0 0-.583.311c.113-.078.388-.18.583-.311.251-.098.52-.158.816-.158-.249-.118-.491-.227-.731-.34l-.194-.157c1.054.183 2.091.402 3.151.534.232.078.457.149.635.226.722.305 1.443.61 2.031.134.187.023.376.049.567.072l-.131.084.232-.069 2.398.312 4.783.462c10.432.852 20.038 1.663 30.889 1.336 5.875-.27 11.506-.833 16.981-1.808 5.455-.959 10.678-1.27 15.897-1.949 5.21-.676 10.424-1.679 15.646-4.001 4.019-1.651 11.788-2.479 15.721-3.246 2.826.391 3.803 1.958 4.131 3.494.347 1.528-.112 3.029-.207 3.2-.403.836-.825 1.485-1.282 2.002m-99.679 1.663c.716.332 1.733.282 2.612-.168-.89-.656-1.786-.304-2.612.168m-1.377.798c.003 0 .004-.003.009-.006.412-.183.875-.508 1.369-.792-.494.283-.957.609-1.369.792-.005.003-.006.006-.009.006M214.366 227.584l-.024.029c.009-.009.017-.02.024-.029m0 0l.001-.001-.001.001zm-5.601-2.183c-.895-.109-1.768-.29-2.652-.432.232.086.449.165.623.246.021.009.041.019.062.027a1.634 1.634 0 0 0-.099 0c.185.078.375.151.571.209.532.215 1.047.315 1.495-.05m-11.242.815l.001-.001-.001.001zm.511-.81c-.146.287-.299.569-.505.803.206-.234.359-.516.505-.803m-.711 1.005l.024-.02-.024.02M196.499 225.281c.449.056 1.136-.033 1.585.024-.449-.057-1.136.032-1.585-.024m-1.713-2.055c-.125.141.016.345.435.521l.704-.428c-1.096-.652-2.143-1.38-3.537-.903l-.625-.623a.6.6 0 0 0-.417.212c-.12.135-.197.313-.299.467 1.235.517 2.518.826 4.025.618-.138.031-.236.08-.286.136m112.182 6.997c-.164.104-.36.214-.59.331.199-.116.397-.225.59-.331m-111.704-7.161c-.064.01-.127.02-.191.027.054-.011.119-.021.191-.027"/><path fill="#FABB00" d="M207.987 225.591a3.434 3.434 0 0 1-.717-.138 9.157 9.157 0 0 1-.472-.211c.366.014.761.116 1.189.349"/><path fill="#FABB00" d="M208.767 225.403c-.449.363-.965.263-1.497.05.229.068.468.119.717.138a2.682 2.682 0 0 0-1.189-.349l-.061-.027c-.175-.082-.392-.16-.626-.247.887.143 1.76.324 2.656.435"/><path fill="#009EE0" d="M260.375 207.501a1.267 1.267 0 0 0-.303.26 1.534 1.534 0 0 0-.147.189c-.197.146-.309-.118-.465-.348l.915-.101zM261.222 207.4l.304.082-.144-.103-.16.021zM262.83 207.635c-.279.081-.553.05-.814-.012.225-.101.492-.116.814.012M262.014 207.622a1.23 1.23 0 0 0-.401.306c-.016.017-.031.036-.047.055.092-.181.134-.369-.033-.499l-.007-.003c.162.05.322.102.488.141"/><path fill="#009EE0" d="M261.285 208.429l.01-.021-.01.021m.01-.022c.079-.154.169-.297.271-.425-.082.165-.215.323-.271.425M267.85 212.924c-.046.053-.146.084-.312.086-1.75-.044-2.896-.26-4.478-.427-1.297-.423-2.535-.939-3.836-1.315-.363-.042-.699.066-1.038.163.442-.206.892-.41 1.392-.608.652-.359 1.498 1.138 2.559 1.363.019.014.035.011.049-.004.042-.046.061-.211.086-.383.027-.172.06-.352.126-.425.041-.046.091-.053.16-.003.777.3 1.46.813 2.18.774.102.073.214 0 .329-.13.076-.086.154-.197.231-.309.078-.113.155-.225.229-.312.115-.128.226-.198.328-.126.666.234 2.277 1.336 1.995 1.656M255.055 209.208c-.359-.059-.448-.3-.246-.53a.317.317 0 0 1 .044-.046c-.842.648-1.647.746-2.458.629.056-.286.065-.607.231-.794a.408.408 0 0 1 .079-.07c.155.135.467.402.467.402l.024-.026c.729-.827 1.455-.494 2.197-.162l-.338.597z"/><path fill="#009EE0" d="M252.375 209.365c-.167-.059-.333-.116-.494-.174l.021-.029c.165.041.332.072.495.099l-.022.104zM341.907 199.484c-1.205 1.369-2.957 1.042-5.489 3.174.034-.034.064-.067.095-.101.666-.755.039-1.175-1.026-1.096-1.066.081-2.572.659-3.666 1.899a5.739 5.739 0 0 0-.538.722 7.295 7.295 0 0 1-.818 1.14c-3.291 3.733-8.953 1.744-13.233 3.604-1.17.501-2.503.523-3.946.865-7.329 2.838-14.682 2.077-22.66 3.524-2.128.29-4.139-.556-6.006-.948-1.334-.044-2.668.711-3.735.842-1.675.208-3.177-.083-4.613-.457 1.568.049 2.743.28 4.481.235.159-.01.257-.043.305-.098.289-.326-1.379-1.357-2.06-1.576-.099-.064-.198-.004-.3.109-.079.09-.159.217-.241.343a2.86 2.86 0 0 1-.243.345c-.101.115-.2.174-.297.107-.711.073-1.416-.395-2.208-.652-.066-.046-.116-.036-.152.004-.066.075-.09.26-.107.437-.019.18-.029.349-.069.394-.012.014-.027.017-.045.006-1.067-.165-1.998-1.61-2.629-1.215l-1.352.677c-.275.087-.548.162-.85.139-.192-.083-.391-.168-.589-.256-1.422-.594-3.035-1.103-4.52-1.503l.014-.108a4.95 4.95 0 0 1-.508-.054c.086-.164.221-.343.375-.519a9.215 9.215 0 0 1 1.015-.955c2.139-.128 4.151-.308 6.101-.624.169.217.299.476.49.314.06-.1.126-.187.188-.258.078-.087.155-.157.235-.212l.851-.149.31.062-.148-.093 1.936-.372c.152.016.297.029.419.056.392.09.788.18 1.047-.113a.944.944 0 0 0 .157-.273l.344-.072-.057.113.121-.126 1.458-.323 2.893-.667c6.294-1.52 12.176-2.273 18.689-3.843 3.516-.934 6.863-1.976 10.099-3.263 6.441-2.522 12.821-2.086 18.977-6.363 2.375-1.535 7.248-1.945 9.735-2.34 3.68 1.247 3.048 6.617 2.943 6.938-.321 1.271-.705 2.052-1.173 2.58m-60.235 7.405c.411.129.888-.053 1.277-.494.073-.083.144-.175.21-.275-.451-.292-.803-.131-1.101.207a3.483 3.483 0 0 0-.386.562m-1.135.97c.169.169.336.34.455.205-.119.135-.286-.036-.455-.205m1.135-.97c-.227.388-.425.81-.625 1.08 0 .003-.003.006-.004.009.001-.003.004-.006.004-.009.201-.27.399-.692.625-1.08M280.042 207.695c-.049.061-.092.164-.131.323.04-.159.083-.263.131-.323m.011-.01v-.001.001zm-4.711.11c.266.038.51.018.691-.187a.898.898 0 0 0 .154-.271l-1.625.33c.155.013.299.027.417.055l.042.009a.594.594 0 0 1-.057.027c.124.023.251.036.378.037m-.878-.149l.01.004c.172.119.141.306.059.493a2.2 2.2 0 0 0-.255.454c.046-.106.176-.277.255-.454.03-.042.062-.081.095-.118.098-.112.21-.203.335-.267-.171-.03-.334-.073-.499-.112m-5.294 3.194c.27-.086.634-.379.904-.465-.27.086-.634.379-.904.465m-1.357-1.607c-.231.263-.132.521.257.553l.293-.621c-.732-.26-1.456-.52-2.089.198a2.155 2.155 0 0 0-.128.161l-.51-.364a.352.352 0 0 0-.052.05c-.172.197-.148.534-.177.83.825.053 1.62-.103 2.418-.821a.04.04 0 0 1-.012.014m68.605-6.575c-.094.093-.204.19-.335.292.113-.102.226-.2.335-.292m-68.494 6.472l-.098.09c.03-.032.062-.06.098-.09"/><path fill="#BDCD00" d="M261.076 184.719a1.872 1.872 0 0 0-.576.455c-.249.147-.383-.113-.577-.343l1.153-.112zM262.522 184.69a5.026 5.026 0 0 0-.38-.079l.204-.021.176.1zM264.158 184.831c-.353.081-.693.055-1.025-.004.289-.103.623-.121 1.025.004"/><path fill="#BDCD00" d="M263.134 184.827a1.622 1.622 0 0 0-.57.363c.119-.182.176-.37-.032-.497l-.01-.003c.203.048.403.098.612.137M262.199 185.639l.004-.007-.004.007m.005-.007a2.522 2.522 0 0 1 .361-.442c-.05.076-.112.152-.172.22l-.047.055a.92.92 0 0 0-.046.051.843.843 0 0 0-.096.116M270.33 190.133c-.055.062-.182.1-.405.108-2.192-.038-3.632-.332-5.594-.459-1.604-.412-3.139-.916-4.764-1.283-.454-.058-.877.035-1.303.115.558-.18 1.129-.363 1.754-.562.821-.366 1.851 1.126 3.168 1.343.026.015.049.007.067-.014.047-.053.076-.208.111-.371.034-.162.076-.333.151-.417.053-.059.121-.078.215-.02.965.295 1.804.796 2.704.759.422.251 1.007-1.101 1.425-.853.823.274 2.769 1.315 2.471 1.654M254.37 186.374c-.421-.055-.547-.268-.358-.482a.618.618 0 0 1 .105-.093c-1.06.645-2.068.741-3.085.622.063-.264.075-.562.243-.752a.496.496 0 0 1 .141-.111c.195.134.592.403.592.403.922-.857 1.85-.521 2.791-.182l-.429.595zM251.004 186.524l-.619-.174.024-.027c.207.037.417.071.622.098l-.027.103z"/><defs><path id="aa" d="M33.338 107.931H533.59V459H33.338z"/></defs><clipPath id="ab"><use xlink:href="#aa" overflow="visible"/></clipPath><path clip-path="url(#ab)" fill="#BDCD00" d="M363.073 171.52c-1.485 1.685-3.701 1.482-6.93 3.993a2.39 2.39 0 0 0 .195-.198c.718-.812-.18-1.125-1.581-.863-1.403.261-3.311 1.096-4.613 2.576a5.987 5.987 0 0 0-.397.496c-.207.3-.425.58-.655.839-4.043 4.584-11.37 2.995-16.896 5.272-1.466.609-3.129.748-4.935 1.221-9.2 3.431-18.411 3.117-28.423 4.988-2.686.353-5.185-.425-7.507-.721-1.66.035-3.358.817-4.705.956-2.112.221-3.974.005-5.759-.328 1.96.005 3.413.168 5.6.108.218-.013.345-.053.397-.114.305-.344-1.715-1.332-2.551-1.53-.162-.083-.332.058-.507.256a4.915 4.915 0 0 0-.181.216 5.01 5.01 0 0 1-.179.216c-.177.199-.349.342-.511.258-.891.096-1.756-.35-2.739-.58-.092-.046-.158-.03-.206.024-.075.085-.108.262-.132.433-.027.169-.046.333-.093.386-.016.02-.037.025-.062.011-1.33-.133-2.462-1.605-3.263-1.205a40.6 40.6 0 0 0-1.715.684c-.347.093-.693.174-1.067.156-.237-.079-.481-.162-.728-.243-1.761-.574-3.762-1.009-5.617-1.475l.021-.107a9.403 9.403 0 0 1-.638-.068c.037-.052.08-.105.129-.162.517-.586 1.652-1.278 1.652-1.276 2.687-.124 5.209-.411 7.664-.714.208.218.362.477.606.317l.076-.092c.152-.171.31-.292.466-.377l1.072-.148.388.062-.184-.093 2.433-.434c.189.008.374.016.523.041.521.081 1.044.162 1.374-.212.052-.061.101-.132.143-.216l.435-.085-.075.117.152-.132 1.834-.354c1.197-.244 2.407-.455 3.639-.728 7.902-1.817 15.277-2.749 23.416-4.811 4.406-1.1 8.575-2.49 12.619-3.982 8.027-3.08 15.956-3.211 23.572-8.178 2.938-1.794 8.956-2.758 12.015-3.462 4.532.807 3.851 6.305 3.719 6.647-.351 1.224-.778 2.033-1.291 2.615m-75.282 12.317c.58.146 1.276-.138 1.807-.739.022-.028.049-.057.073-.087-.67-.327-1.183.005-1.613.496a5.187 5.187 0 0 0-.267.33m-.828 1.119l-.007.009.007-.009m.066-.082zM286.979 184.928c.007-.01.017-.018.025-.027-.008.009-.018.017-.025.027m.499-.653c-.072.103-.143.204-.211.298.068-.094.138-.195.211-.298m.304-.429c-.078.104-.152.211-.228.318.076-.107.15-.213.228-.318m-2.074.844c.186-.209.411-.042.631.133-.22-.174-.445-.342-.631-.133M285.559 184.983l-.013.031.013-.031M285.666 184.745c-.002.003-.004.007-.007.009.003-.002.005-.006.007-.009m.02-.027c-.005.005-.009.012-.012.017a.136.136 0 0 1 .012-.017m.013-.02v.001-.001zm-5.856.211c.36.029.692-.006.926-.273a.94.94 0 0 0 .144-.214l-2.041.387-.124-.019.011.006c.213.112.169.301.061.491l-.043.046a2.481 2.481 0 0 0-.296.417c.059-.106.231-.278.339-.462.155-.169.334-.309.549-.401l-.494-.077c.191.008.369.014.516.039a.42.42 0 0 0 .049.009 1.465 1.465 0 0 0-.07.029c.154.016.312.027.473.022m-7.819 3.123c.337-.093.804-.396 1.143-.488-.338.092-.805.394-1.143.488m-1.714-1.52c-.215.244-.082.465.366.487l.383-.629c-.972-.267-1.929-.505-2.788.379l-.627-.376a.48.48 0 0 0-.114.095c-.172.195-.156.505-.196.78 1.029.079 2.026-.061 3.043-.803a.704.704 0 0 0-.067.067m85.834-10.999a4.504 4.504 0 0 1-.421.338c.142-.118.283-.23.421-.338m-85.632 10.83l-.135.102c.039-.033.083-.068.135-.102"/><path clip-path="url(#ab)" fill="#707173" d="M533.185 388.719c.14-1.502-3.992-3.628-5.316-4.63-1.621-.753-5.333-1.003-8.233 1.252-10.021 7.135-29.023 19.779-29.98 34.425-1.059 16.648 26.683 15.522 26.601 21.655 0 4.257-20.025 10.642-20.999 11.892-2.318 2.504-.654 5.136 2.829 5.259 1.458.25 25.123-11.142 25.403-16.271.446-7.512-5.761-8.517-12.846-11.642-7.73-3.008-14.44-4.007-14.302-11.895.015-3.631 4.558-11.642 11.662-17.151 11.456-8.887 13.296-11.515 17.576-11.642 1.001 0 2.112 1.503 4.49 1.503 2.254 0 3.123-1.376 3.115-2.755m-59.613 13.647c-3.911 3.002-6.737 4.131-10.265 6.383-5.331 3.257-15.222 5.385-15.222 5.385s5.877-5.635 11.201-8.137c8.196-3.881 14.286-3.631 14.286-3.631m19.768 18.526c-2.983-2.255-5.532 2.252-6.842 4.007-1.562 1.753-23.325 17.274-33.28 17.648-5.303.252-7.756-2.879-9.346-6.633-3.848-8.014-.047-14.648-.047-14.648 8.328-2.502 14.748-4.128 20.537-7.133 9.917-5.133 21.948-13.02 20.541-14.272-11.509-9.263-41.205 2.255-48.456 20.655-4.086 10.39-.036 22.907 8.582 27.29 12.748 6.509 42.435-17.024 45.873-18.776 3.234-2.005 5.274-5.759 2.438-8.138m-50.74-34.551c-2.719-3.755-7.297 3.757-8.188 5.259-.597 1.25-12.906 14.27-22.499 24.659-9.637 10.642-18.967 21.657-18.967 21.657-.546-4.004-.583-6.635-.79-9.013-.647-8.388.014-10.014-.51-16.275-.892-7.008-4.185-11.768-7.629-9.263-2.039 1.628-.205 8.264.473 11.518.552 3.255.863 14.27 2.028 25.412.288 2.628.119 7.135 2.504 8.514 3.402 2.002 7.438-3.131 9.367-6.262 2.796-4.504 29.625-36.678 36.075-41.308 5.34-4.006 11.058-10.891 8.136-14.898m-64.711 16.275c.971-3.381-.758-5.633-3.159-5.509-4.175.249-4.932 7.388-6.521 14.272-4.688 20.904-8.332 33.046-5.952 35.175 2.254 2.128 5.456 1.002 6.14-.75 2.408-5.133-1.243-2.881 1.125-12.771 1.111-4.882 7.374-26.913 8.367-30.417m7.625-41.813c.647-2.252-.548-4.004-2.425-4.004-3.254 0-2.885 2.878-6.341 8.261-3.893 5.759-4.423 10.892-3.266 12.144.949 1.003 2.731.124 3.638-.752 1.574-1.126.949-3.255 3.643-7.885 2.335-4.007 4.337-6.135 4.751-7.764m-16.917 34.175c.324-3.254-4.205-3.128-6.812-3.254-10.176-.5-20.045 1.502-20.045 1.502 2.562-8.135 3.668-10.14 5.742-17.65 3.349-11.892 2.279-15.772-.723-15.772-4.257 0-3.704 7.512-4.483 10.516-3.68 13.771-7.243 24.033-7.243 24.033-7.864 2.005-9.602 2.631-17.223 5.386-7.349 2.628-7.776 3.628-8.731 5.506-1.003 2.129.714 3.757 2.981 4.381 1.437.376 3.402-2.252 9.499-4.881 4.881-2.128 11.258-3.504 11.258-3.504-1.574 5.38-2.517 7.885-4.961 16.774-3.627 12.768-4.621 20.528-5.99 26.161-.242 1.376-.794 6.636 3.169 6.886 5.441.376 3.996-5.633 4.069-6.759 2.06-16.651 10.464-44.441 10.464-44.441 4.684-1.002 13.633-2.754 21.393-2.754 2.13-.001 7.203 1.751 7.636-2.13m-59.943 30.421c.684-1.752-.671-4.007-3.227-3.004-1.591.499-45.341 26.414-56.263 18.776-11.584-8.138 17.814-34.299 21.622-35.302 2.512-.749 4.514 1.379 6.614.127 4.91-3.005 7.752-9.89-1.379-8.514-13.249 2.005-43.191 32.673-35.406 45.316 11.358 18.655 67.65-15.897 68.039-17.399m-81.813-23.033c-3.911 3.002-6.737 4.131-10.264 6.383-5.33 3.257-15.219 5.385-15.219 5.385s5.875-5.635 11.199-8.137c8.194-3.881 14.284-3.631 14.284-3.631m19.767 18.526c-2.984-2.255-5.529 2.252-6.84 4.007-1.561 1.753-23.327 17.274-33.282 17.648-5.303.252-7.755-2.879-9.345-6.633-3.845-8.014-.046-14.648-.046-14.648 8.329-2.502 14.75-4.128 20.536-7.133 9.918-5.133 21.95-13.02 20.543-14.272-11.512-9.263-41.207 2.255-48.458 20.655-4.084 10.39-.033 22.907 8.583 27.29 12.748 6.509 42.435-17.024 45.873-18.776 3.232-2.005 5.271-5.759 2.436-8.138M197.3 359.051c-2.246-2.879-4.11-2.252-5.98-.877-1.745 1.379-4.144 12.145-8.515 28.417-5.733 21.154-17.553 65.472-14.342 67.85 5.383 4.257 6.817-3.88 7.244-7.011 1.067-11.016 4.716-28.166 9.654-44.814 10.806-36.43 13.957-40.811 11.939-43.565m-20.654 0c-2.246-2.879-4.109-2.252-5.98-.877-1.745 1.379-4.143 12.145-8.514 28.417-5.734 21.154-17.554 65.472-14.343 67.85 5.383 4.257 6.817-3.88 7.244-7.011 1.067-11.016 4.718-28.166 9.655-44.814 10.804-36.43 13.955-40.811 11.938-43.565M136.155 410.5c2.018 7.011-1.074 13.896-5.603 20.405-3.408 5.133-14.584 13.146-19.968 11.018-5.28-2.005-5.164-11.894-2.358-17.15 9.842-18.903 20.35-20.278 20.35-20.278l-.015-.627c5.501.753 6.628 2.879 7.594 6.632m6.797 4.759c.388-14.27-9.672-18.276-14.495-17.903-6.723.503-14.94 6.636-24.754 22.537-7.693 12.391-3.515 24.909 1.837 27.913 8.78 4.883 36.642-9.014 37.412-32.547m-39.719 10.14c.685-1.752-.67-4.007-3.225-3.004-1.59.499-45.343 26.414-56.264 18.776-11.583-8.138 17.816-34.299 21.623-35.302 2.511-.749 4.514 1.379 6.613.127 4.911-3.005 7.751-9.89-1.379-8.514-13.247 2.005-43.19 32.673-35.405 45.316 11.357 18.655 67.647-15.897 68.037-17.399"/><path fill="#707173" d="M481.28 323.589c.239 15.646 9.866 26.115 23.708 26.115 15.162 0 24.79-11.312 24.79-27.678 0-11.073-4.814-17.209-15.645-21.423-6.859-2.647-12.997-3.73-17.089-6.738-3.491-2.648-5.056-5.776-5.056-10.229 0-8.426 5.776-14.683 14.442-14.683 7.821 0 12.756 5.174 13.6 14.561h7.941c-.843-14.561-8.905-22.623-21.541-22.623-13.839 0-22.865 9.987-22.865 23.226 0 11.19 5.656 17.09 17.689 21.181 11.914 3.972 20.098 5.896 20.098 18.291 0 10.472-6.137 17.331-16.246 17.331-9.026 0-15.404-6.62-15.646-17.331h-8.18zm-47.415-22.743v-29.967h35.981v-8.425H425.44v85.563h44.406v-8.301h-35.981V309.27h35.981v-8.424h-35.981zm-24.31-38.391h-8.423v85.563h8.423v-85.563zm-73.167 44.529v7.58h43.203c-3.851 16.366-17.933 27.078-33.215 27.078-19.616 0-35.262-15.525-35.262-36.824 0-19.015 14.804-35.864 35.142-35.864 11.553 0 20.458 4.935 28.401 15.044h10.35c-7.942-14.803-21.54-23.226-38.269-23.226-12.637 0-22.746 4.09-31.171 12.394-8.785 8.666-13.356 19.617-13.356 31.529 0 25.636 18.895 45.01 43.443 45.01 23.708 0 42.481-17.45 43.925-42.721h-53.191zm-89.656-36.105h12.394c8.064 0 14.08 0 18.774 4.212 4.093 3.731 6.138 8.664 6.138 14.681 0 9.749-7.22 16.97-18.293 16.97h-8.062l25.393 41.275h9.989l-20.7-33.454c12.035-.842 20.7-11.914 20.7-24.912 0-8.905-4.213-17.448-11.072-22.262-6.018-4.212-12.518-4.935-20.58-4.935h-22.985v85.563h8.304v-77.138zm-59.09 29.967v-29.967h35.983v-8.425h-44.408v85.563h44.408v-8.301h-35.983V309.27h35.983v-8.424h-35.983zm-31.89 36.944l-46.935-75.335H98.708v85.563h8.304l-.963-75.454 46.934 75.454h10.108v-85.563h-8.303l.964 75.335zM46.96 300.846v-29.967h35.984v-8.425H38.537v85.563h44.408v-8.301H46.96V309.27h35.984v-8.424H46.96zm12.757-46.695l15.764-20.579h-8.905l-12.275 20.579h5.416z"/></symbol><symbol viewBox="0 -529.06 1187.59 1187.59" id="EnergiesCollectives_rectangle_Logo_ajuste" xmlns="http://www.w3.org/2000/svg"><defs><path id="ba" d="M33.338 107.931H533.59V459H33.338z"/><clipPath id="bb"><use xlink:href="#ba" overflow="visible" width="100%" height="100%"/></clipPath></defs><path d="M653.813 50.444c-2.041 2.313-4.992 2.101-9.688 5.089.204-.146.354-.28.457-.398 1.414-1.605-5.56-.612-8.955 2.812-2.774 2.93-6.74 4.002-10.98 4.549-4.242.571-8.738.64-12.792 1.739-2.031.56-4.254.613-6.734.937-6.385 1.392-12.743 1.622-19.203 1.26-6.471-.384-13.026-1.303-20.122-2.72-3.761-.835-6.703-3.009-9.444-4.783-1.065-.494-2.193-1.045-3.325-1.442-.56-.214-1.117-.406-1.634-.626a16.406 16.406 0 0 1-1.406-.78c-1.333-.843-2.52-1.699-3.476-2.774-.971-1.039-1.894-1.986-2.56-3.163.883 1.178 1.834 1.973 2.735 2.92.47.446.92.957 1.468 1.378a64.73 64.73 0 0 0 1.79 1.333c.37.249.566.302.636.222.266-.3-1.26-2.509-1.935-3.331-.281-.575-1.844-.113-2.144-.71-.503-.413-.9-.905-1.255-1.445-.32-.588-.604-1.208-.952-1.823-.203-.606-1.056.253-1.163-.056a5.083 5.083 0 0 1-.621-1.242c-.128-.442-.181-.901-.25-1.315-.131-.832-.247-1.522-.725-1.909-.328-.315-.668-.607-.961-.904l-.823-.889c-.297-.395-.586-.795-.796-1.27-.078-.319-.112-.688-.165-1.034a39.629 39.629 0 0 1-.464-3.425c.124-.012.253-.033.376-.044.01-.461-.095-.881-.47-1.286a25.01 25.01 0 0 1-.017-.391c.01-.008.017-.017.027-.028a.335.335 0 0 0 .078-.21l-.115-.029a26.088 26.088 0 0 1 .035-2.463l.11.018c.08 1.39.5 2.738 1.584 3.821-.18-.145-.32-.167-.397-.079-.082.094-.098.303-.021.624l.75.313c-.046-.653-.085-1.289-.266-1.866-.171-.584-.395-1.132-.968-1.622 0 0 .128-.578.234-.861-.21-.363-.586-.293-.917-.332a13.19 13.19 0 0 1 0-.867c.334.274.744.843 1.07 1.315.369.463.675.851.675.851.732 3.334 2.29 6.271 4.132 8.811-.058.326-.184.621.125.809.317.081.57.206.783.352.283.358.556.725.852 1.068.084.134.17.271.26.41l-.07-.232c.758.718 1.512 1.429 2.268 2.143.13.204.302.357.418.507.473.592.965 1.201 1.693 1.039.148.104.3.212.45.32l-.147.017.229.042c.604.487 1.347.798 2.023 1.192.302.46.595.985.957 1.419-.362-.434-.655-.959-.957-1.419.683.355 1.336.756 2.042 1.081.717.298 1.442.601 2.176.905 4.759 1.824 9.565 2.927 14.5 3.651a81.385 81.385 0 0 0 15.422.755c5.84-.291 11.44-1.127 16.85-2.346 5.388-1.214 10.58-1.88 15.759-2.913 5.167-1.029 10.316-2.412 15.388-5.108 3.91-1.943 11.666-3.336 15.592-4.37 5.709.374 4.574 6.043 4.38 6.418-.418 1.028-.882 1.79-1.406 2.385M553.43 52.338c.08.069.184.098.323.06.437.007 1.014-.198 1.568-.309.573.524 1.567.777 2.512.593-.642-.89-1.57-.799-2.512-.593-.28-.251-.458-.562-.5-.917.042.355.22.666.5.917-.554.111-1.132.316-1.568.309-.14.038-.242.009-.323-.06m-1.225-1.009c.325-.17.526-.146.667-.027-.141-.119-.342-.143-.667.027m-5.19-5.204c.32.462.69.824 1.235.763l-1.923-1.791-.082-.136.003.014c.032.115.014.194-.032.246-.064.074-.191.096-.336.094a3.469 3.469 0 0 0-.675-.078c.139.003.432.076.675.078.267.061.527.158.774.319.11.166.229.333.36.491m-8.313-9.524l-.038.384.032.005c.034-.13.072-.265.109-.399zm105.423 18.932c-.158.115-.345.24-.565.372.189-.129.379-.254.565-.372m-97.39-9.844a.768.768 0 0 0-.08-.055c-.11-.18-.217-.354-.321-.529.139.191.272.37.369.528.01.019.023.037.033.056m-6.638-9.498a4.076 4.076 0 0 1-.164-.158c.052.042.108.096.164.158M571.039 7.251c-.164.2-.35.331-.56.448-.521.293-.518-.376-1.277.548-.024.03-1.013-.576-1.04-.546.294-.473.535.106-.05.651-.461-.074-1.18.161-1.725.824-.23.279-.985-.749-1.122-.309-.187.674-1.002-.208-1.314.171-.576.704-1.338.988-2.17 1.178-1.275.277-2.717.337-3.73 1.203-.492.445-1.173.547-1.822.915-1.531 1.296-3.638 2.551-5.3 3.297-1.651.741-2.603 2.275-3.967 3.532-.366.311-1.08.631-1.08.631-.494.1.106 2.933-.36 3.063-.111.066-.762-1.232-.841-1.137-.146.178-1.65.962-1.741 1.171-.092.207.384 1.789.267 1.929a.582.582 0 0 1-.04.045 1.305 1.305 0 0 1-.058.072c-.434.529.89 1.622.288 1.926.477-.497-.941-1.551-.394-2.071l.024-.024c.28-.344-1.144-.416-1.556-.26-.023.001-.04.007-.047.019-.044.053.038.212.119.369.082.157.164.313.124.365-.01.012-.026.018-.05.018-.003.005-.005.009-.01.012-.201.245 1.304 1.097.896 1.262-.023.003-.04.008-.046.018-.035.042.089.146.215.243.128.099.257.191.24.212-.002.003-.004.004-.012.005-.385.236-1.303.133-1.492.365a.148.148 0 0 0-.033.125c.012.271.035.516.072.753 0 .138-.007.27-.087.382-.1.052-.201.106-.302.161-.231-.159-.534-.302-.84-.445-.003.145.115.388.112.526.003-.138-.115-.382-.112-.526.306.143.609.286.84.445a5.516 5.516 0 0 0-1.21.883.46.46 0 0 1-.097-.099c.02.044.04.091.056.139-.246.232-.478.482-.702.734l-.075-.024c.194-.391.223-.785-.131-1.355.126.169.309.197.414.068a.348.348 0 0 0 .03-.047l-.37-.297a2.136 2.136 0 0 0-.286.275c-.203.246-.27.536.109.9l-.361.186c.086.15.363.199.593.271-.042.08-.084.158-.124.239-.421-.252-.81-.971-.81-.971.16-.575.31-1.13.52-1.657.18-.538.357-1.065.588-1.566.149-.001.306.021.352-.034.014-.017.017-.041.008-.074a.942.942 0 0 1-.167-.375l.183-.45.153-.109-.113.026.488-1c.064-.058.126-.116.187-.154.104-.073.214-.14.283-.224.086-.105.107-.241-.033-.455l.099-.174.04.078-.021-.109.427-.74c.283-.482.618-.934.943-1.416.249-.352.507-.688.77-1.012 2.069-2.516 3.544-7.038 6.29-9.015 1.682-1.236 3.235-3.138 4.83-4.396 1.696-1.339 2.36-2.426 4.603-3.372 1.739-.734 3.385-1.142 5.62-1.799C565.427.501 568.333.205 569.91 0c7.727 2.427 3.332 5.921 3.338 6.131-.185 1.085-1.915.762-2.21 1.12m-31.517 21.957c.058.081.134.267.23.391a2.196 2.196 0 0 0-.23-.391l-.007-.011.007.011m.91-1.498a.255.255 0 0 0-.055.164c.087.223.124.414.128.593l.145-.48.203-.462c-.167.053-.336.084-.421.185m4.343-6.396l.638-.16c.137-.28-.057-.48-.167-.702-.391.275-.75.583-1.053.951l-.08.1c-.298.362-.54.786-.701 1.281.069-.326-.14-.388-.491-.089l.047.588c.407-.24.244-1.858.564-2.162.095-.083.183-.173.26-.27.205-.244.91.843.983.463m.437-.934l.035.073.507-.342.003-.03-.545.299m-5.475 5.071l.006-.001c.136-.025.24.065.325.177.05.098.116.2.192.296-.05-.062-.11-.188-.192-.296a.674.674 0 0 1-.081-.341c-.08.058-.166.11-.25.165m2.74-2.318c0-.001 0-.002.003-.004l-.003.004m-.304-.908c.099.286.232.575.29.784.03.059.036.095.019.117.017-.021.013-.058-.02-.117-.056-.208-.19-.497-.29-.784m-.176 1.182l.027.035-.027-.035m.219-.274a.295.295 0 0 1 .027.004l-.027-.004m-.234.249l.016.023a.188.188 0 0 1-.016-.023m.226-.25h.003-.003m-.307.005c.042-.05.168-.029.294-.008l.007.002-.007-.002c-.126-.021-.252-.042-.294.008m.07.231c.002.004.004.005.007.008-.004-.003-.005-.004-.006-.008m-1.822 1.769a.64.64 0 0 0 .083-.081c.095-.115.112-.259-.052-.48l-.394.843a1.39 1.39 0 0 1 .184-.157l.02-.014-.005.037a.938.938 0 0 0 .164-.148m2.024-2.912a.407.407 0 0 0 .199-.132c.134-.164.163-.449.069-.812-.155 0-.256.044-.317.118-.138.169-.07.496.049.826" fill="#caac6f"/><path d="M510.96 108.523a2.49 2.49 0 0 0-.867.139c-.354.001-.41-.313-.54-.627.459.183.93.344 1.408.488M512.705 109.198a7.355 7.355 0 0 0-.424-.257l.25.077zM514.606 110.121c-.456-.093-.853-.286-1.224-.502.384.045.793.192 1.224.502M513.383 109.618a2.265 2.265 0 0 0-.827.062.658.658 0 0 0 .194-.139c.079-.09.092-.198-.035-.336l-.01-.007c.225.137.446.278.678.42M512.555 109.68c-.197.102-.473.168-.6.229a3.04 3.04 0 0 1 .6-.229m-.6.228a.037.037 0 0 1-.013.007c.005-.001.01-.005.014-.007M520.148 117.823c-.063.073-.247.065-.587-.059a90.76 90.76 0 0 1-6.684-2.972 327.28 327.28 0 0 1-5.228-3.573c-.522-.283-1.068-.411-1.614-.551.746.11 1.502.227 2.328.38 1.115.125 1.775 1.962 3.28 2.822.062.064.136.01.224-.089.036-.042.075-.092.115-.141.04-.051.082-.104.125-.153.157-.178.333-.306.517-.109 1.054.735 1.866 1.652 2.99 1.989.422.419 1.662-.586 2.078-.171.869.565 2.726 2.321 2.456 2.627M503.078 106.285l-.75.306c-.362-.218-.48-.428-.37-.553.056-.06.159-.101.314-.115-1.506 0-2.724-.477-3.862-1.153a5.915 5.915 0 0 0 .133-.159c.037-.047.075-.096.116-.141.139-.158.3-.286.566-.274l.519.699c1.44-.269 2.376.555 3.334 1.39" fill="#fabb00"/><path d="M498.41 104.77l-.075.081-.65-.506.04-.013.685.438M643.685 116.875c-2.206 2.502-5.17 1.935-10.247 4.693.253-.158.43-.301.544-.429 1.25-1.42-5.588-.892-9.15 2.225-2.963 2.72-6.971 3.501-11.197 3.746-4.236.28-8.683.019-12.741.899-2.035.402-4.224.359-6.675.547-6.34 1.084-12.535 1.041-18.774.675-6.247-.356-12.538-1.113-19.256-1.602-3.56-.332-6.522-1.88-9.383-2.861-2.123-.522-4.524-.337-6.283-.617-2.753-.503-5.031-1.411-7.164-2.366 2.469.711 4.243 1.411 7.032 2.104.342.07.524.058.587-.014.28-.319-1.826-1.812-2.765-2.305-.473-.366-1.576.774-2.052.405-1.148-.242-2.097-.932-3.24-1.562-.166-.14-.3-.073-.414.057a1.868 1.868 0 0 0-.184.269c-.056.093-.107.186-.158.241-.053.059-.102.083-.154.042-1.614-.658-2.513-2.449-3.653-2.378l-2.374-.047c-.464-.058-.92-.128-1.376-.303-.266-.175-.54-.354-.814-.536a261.584 261.584 0 0 0-6.341-3.848l.065-.092c-.251-.105-.501-.22-.751-.34.753-.386 2.726-.566 2.726-.566l2.45.799 2.43.653c1.608.402 3.174.834 4.75 1.142.18.283.28.584.638.523.297-.145.575-.215.84-.241.462.087.922.174 1.378.258.15.066.305.134.458.203l.01.008c.16.138.146.26.05.366a.652.652 0 0 1-.145.124 2.88 2.88 0 0 0-.583.311c.113-.078.388-.18.583-.311.25-.098.52-.158.816-.158-.25-.118-.491-.227-.731-.34l-.194-.157c1.054.183 2.09.402 3.15.534.233.078.458.149.636.226.722.305 1.443.61 2.03.134.188.023.377.049.568.072l-.131.084.232-.069 2.398.312 4.783.462c10.432.852 20.038 1.663 30.889 1.336 5.875-.27 11.506-.833 16.98-1.808 5.456-.959 10.679-1.27 15.898-1.949 5.21-.676 10.424-1.679 15.646-4.001 4.019-1.651 11.788-2.479 15.72-3.246 2.827.391 3.804 1.958 4.132 3.494.347 1.528-.112 3.029-.207 3.2-.403.836-.825 1.485-1.282 2.002m-99.68 1.663c.717.332 1.734.282 2.613-.168-.89-.656-1.786-.304-2.612.168m-1.377.798c.003 0 .004-.003.009-.006.412-.183.875-.508 1.369-.792-.494.283-.957.609-1.37.792-.004.003-.005.006-.008.006M540.835 118.93c-.006.01-.015.02-.023.029.009-.009.017-.02.024-.029m0 0v-.001zm-5.601-2.183c-.895-.109-1.768-.29-2.652-.432.232.086.449.165.623.246.02.009.04.019.062.027a1.634 1.634 0 0 0-.1 0c.186.078.376.151.572.209.532.215 1.047.315 1.495-.05m-11.242.815v-.001zm.51-.81c-.145.287-.298.569-.504.803.206-.234.359-.516.505-.803m-.711 1.005l.024-.02-.024.02M522.969 116.627c.449.056 1.136-.033 1.585.024-.45-.057-1.136.032-1.585-.024m-1.713-2.055c-.125.141.016.345.435.521l.704-.428c-1.096-.652-2.143-1.38-3.537-.903l-.625-.623a.6.6 0 0 0-.417.212c-.12.135-.197.313-.3.467 1.236.517 2.519.826 4.026.618-.138.031-.236.08-.286.136m112.182 6.997c-.164.104-.36.214-.59.331.199-.116.397-.225.59-.331m-111.704-7.161c-.064.01-.127.02-.191.027.054-.011.119-.021.19-.027" fill="#fabb00"/><path d="M534.457 116.937a3.434 3.434 0 0 1-.717-.138 9.157 9.157 0 0 1-.472-.211c.366.014.76.116 1.189.349" fill="#fabb00"/><path d="M535.237 116.749c-.45.363-.965.263-1.497.05.229.068.468.119.717.138a2.682 2.682 0 0 0-1.19-.349l-.06-.027c-.175-.082-.392-.16-.626-.247.887.143 1.76.324 2.656.435" fill="#fabb00"/><path d="M586.845 98.847a1.267 1.267 0 0 0-.303.26 1.534 1.534 0 0 0-.147.189c-.197.146-.31-.118-.465-.348zM587.692 98.746l.304.082-.144-.103zM589.3 98.981c-.28.081-.553.05-.814-.012.225-.101.492-.116.814.012M588.484 98.968a1.23 1.23 0 0 0-.401.306c-.016.017-.031.036-.047.055.092-.181.134-.369-.033-.499l-.007-.003c.162.05.322.102.488.141M587.755 99.775l.01-.021-.01.021m.01-.022c.079-.154.169-.297.27-.425-.081.165-.214.323-.27.425M594.32 104.27c-.046.053-.146.084-.312.086-1.75-.044-2.896-.26-4.478-.427-1.297-.423-2.535-.939-3.836-1.315-.363-.042-.7.066-1.038.163.442-.206.892-.41 1.392-.608.652-.359 1.498 1.138 2.559 1.363.019.014.035.011.049-.004.042-.046.06-.211.086-.383.027-.172.06-.352.126-.425.04-.046.09-.053.16-.003.777.3 1.46.813 2.18.774.102.073.214 0 .329-.13.076-.086.154-.197.23-.309.079-.113.156-.225.23-.312.115-.128.226-.198.328-.126.666.234 2.277 1.336 1.995 1.656M581.525 100.554c-.36-.059-.448-.3-.246-.53a.317.317 0 0 1 .044-.046c-.842.648-1.647.746-2.458.629.056-.286.065-.607.23-.794a.408.408 0 0 1 .08-.07c.155.135.467.402.467.402l.024-.026c.729-.827 1.455-.494 2.197-.162z" fill="#009ee0"/><path d="M578.845 100.711c-.167-.059-.333-.116-.494-.174l.02-.029c.166.041.333.072.496.099zM668.377 90.83c-1.205 1.369-2.957 1.042-5.49 3.174.035-.034.065-.067.096-.101.666-.755.039-1.175-1.026-1.096-1.066.081-2.572.659-3.666 1.899a5.739 5.739 0 0 0-.538.722 7.295 7.295 0 0 1-.818 1.14c-3.291 3.733-8.953 1.744-13.233 3.604-1.17.501-2.503.523-3.946.865-7.33 2.838-14.682 2.077-22.66 3.524-2.128.29-4.14-.556-6.006-.948-1.334-.044-2.668.711-3.735.842-1.675.208-3.177-.083-4.613-.457 1.568.049 2.743.28 4.48.235.16-.01.258-.043.306-.098.289-.326-1.38-1.357-2.06-1.576-.1-.064-.198-.004-.3.109-.08.09-.16.217-.241.343a2.86 2.86 0 0 1-.243.345c-.101.115-.2.174-.297.107-.711.073-1.416-.395-2.208-.652-.066-.046-.116-.036-.152.004-.066.075-.09.26-.107.437-.02.18-.03.349-.07.394-.011.014-.026.017-.044.006-1.067-.165-1.998-1.61-2.63-1.215l-1.351.677c-.275.087-.548.162-.85.139-.192-.083-.391-.168-.59-.256-1.421-.594-3.034-1.103-4.52-1.503l.015-.108a4.95 4.95 0 0 1-.508-.054c.086-.164.22-.343.375-.519a9.215 9.215 0 0 1 1.015-.955c2.139-.128 4.15-.308 6.1-.624.17.217.3.476.49.314.06-.1.127-.187.189-.258.078-.087.155-.157.235-.212l.85-.149.31.062-.147-.093 1.936-.372c.152.016.297.029.419.056.392.09.788.18 1.047-.113a.944.944 0 0 0 .157-.273l.344-.072-.057.113.12-.126 1.459-.323 2.893-.667c6.294-1.52 12.176-2.273 18.689-3.843 3.516-.934 6.863-1.976 10.099-3.263 6.44-2.522 12.82-2.086 18.977-6.363 2.375-1.535 7.248-1.945 9.735-2.34 3.68 1.247 3.048 6.617 2.943 6.938-.321 1.271-.705 2.052-1.173 2.58m-60.235 7.405c.41.129.888-.053 1.277-.494.073-.083.144-.175.21-.275-.451-.292-.803-.131-1.101.207a3.483 3.483 0 0 0-.386.562m-1.135.97c.169.169.336.34.455.205-.12.135-.286-.036-.455-.205m1.135-.97c-.227.388-.425.81-.625 1.08 0 .003-.003.006-.004.009 0-.003.004-.006.004-.009.2-.27.399-.692.625-1.08M606.512 99.041c-.05.061-.092.164-.131.323.04-.159.083-.263.13-.323m.012-.01v-.001zm-4.711.11c.266.038.51.018.69-.187a.898.898 0 0 0 .155-.271l-1.625.33c.155.013.299.027.417.055l.042.009a.594.594 0 0 1-.057.027c.124.023.25.036.378.037m-.878-.149l.01.004c.172.119.14.306.059.493a2.2 2.2 0 0 0-.255.454c.046-.106.176-.277.255-.454.03-.042.062-.081.095-.118.098-.112.21-.203.335-.267-.171-.03-.334-.073-.5-.112m-5.293 3.194c.27-.086.634-.379.904-.465-.27.086-.634.379-.904.465m-1.357-1.607c-.231.263-.132.521.257.553l.293-.621c-.732-.26-1.456-.52-2.09.198a2.155 2.155 0 0 0-.127.161l-.51-.364a.352.352 0 0 0-.052.05c-.172.197-.148.534-.177.83.825.053 1.62-.103 2.418-.821a.04.04 0 0 1-.012.014m68.605-6.575c-.094.093-.204.19-.335.292.113-.102.226-.2.335-.292m-68.494 6.472l-.098.09c.03-.032.062-.06.098-.09" fill="#009ee0"/><path d="M587.546 76.065a1.872 1.872 0 0 0-.576.455c-.25.147-.383-.113-.577-.343zM588.992 76.036a5.026 5.026 0 0 0-.38-.079l.204-.021zM590.628 76.177c-.353.081-.693.055-1.025-.004.289-.103.623-.121 1.025.004" fill="#bdcd00"/><path d="M589.604 76.173a1.622 1.622 0 0 0-.57.363c.119-.182.176-.37-.032-.497l-.01-.003c.203.048.403.098.612.137M588.669 76.985l.004-.007-.004.007m.005-.007a2.522 2.522 0 0 1 .36-.442c-.05.076-.111.152-.171.22l-.047.055a.92.92 0 0 0-.046.051.843.843 0 0 0-.096.116M596.8 81.479c-.055.062-.182.1-.405.108-2.192-.038-3.632-.332-5.594-.459-1.604-.412-3.14-.916-4.764-1.283-.454-.058-.877.035-1.303.115.558-.18 1.129-.363 1.754-.562.82-.366 1.85 1.126 3.168 1.343.026.015.049.007.067-.014.047-.053.076-.208.11-.371.035-.162.077-.333.152-.417.053-.059.12-.078.215-.02.965.295 1.804.796 2.704.759.422.251 1.007-1.101 1.425-.853.823.274 2.769 1.315 2.47 1.654M580.84 77.72c-.421-.055-.547-.268-.358-.482a.618.618 0 0 1 .105-.093c-1.06.645-2.068.741-3.085.622.063-.264.075-.562.243-.752a.496.496 0 0 1 .14-.111l.593.403c.922-.857 1.85-.521 2.79-.182zM577.474 77.87l-.62-.174.025-.027c.207.037.417.071.622.098z" fill="#bdcd00"/><path transform="translate(326.47 -108.654)" d="M363.073 171.52c-1.485 1.685-3.701 1.482-6.93 3.993a2.39 2.39 0 0 0 .195-.198c.718-.812-.18-1.125-1.581-.863-1.403.261-3.311 1.096-4.613 2.576a5.987 5.987 0 0 0-.397.496c-.207.3-.425.58-.655.839-4.043 4.584-11.37 2.995-16.896 5.272-1.466.609-3.129.748-4.935 1.221-9.2 3.431-18.411 3.117-28.423 4.988-2.686.353-5.185-.425-7.507-.721-1.66.035-3.358.817-4.705.956-2.112.221-3.974.005-5.759-.328 1.96.005 3.413.168 5.6.108.218-.013.345-.053.397-.114.305-.344-1.715-1.332-2.551-1.53-.162-.083-.332.058-.507.256a4.915 4.915 0 0 0-.181.216 5.01 5.01 0 0 1-.179.216c-.177.199-.349.342-.511.258-.891.096-1.756-.35-2.739-.58-.092-.046-.158-.03-.206.024-.075.085-.108.262-.132.433-.027.169-.046.333-.093.386-.016.02-.037.025-.062.011-1.33-.133-2.462-1.605-3.263-1.205a40.6 40.6 0 0 0-1.715.684c-.347.093-.693.174-1.067.156-.237-.079-.481-.162-.728-.243-1.761-.574-3.762-1.009-5.617-1.475l.021-.107a9.403 9.403 0 0 1-.638-.068c.037-.052.08-.105.129-.162.517-.586 1.652-1.278 1.652-1.276 2.687-.124 5.209-.411 7.664-.714.208.218.362.477.606.317l.076-.092c.152-.171.31-.292.466-.377l1.072-.148.388.062-.184-.093 2.433-.434c.189.008.374.016.523.041.521.081 1.044.162 1.374-.212.052-.061.101-.132.143-.216l.435-.085-.075.117.152-.132 1.834-.354c1.197-.244 2.407-.455 3.639-.728 7.902-1.817 15.277-2.749 23.416-4.811 4.406-1.1 8.575-2.49 12.619-3.982 8.027-3.08 15.956-3.211 23.572-8.178 2.938-1.794 8.956-2.758 12.015-3.462 4.532.807 3.851 6.305 3.719 6.647-.351 1.224-.778 2.033-1.291 2.615m-75.282 12.317c.58.146 1.276-.138 1.807-.739.022-.028.049-.057.073-.087-.67-.327-1.183.005-1.613.496a5.187 5.187 0 0 0-.267.33m-.828 1.119l-.007.009.007-.009m.066-.082zM286.979 184.928c.007-.01.017-.018.025-.027-.008.009-.018.017-.025.027m.499-.653c-.072.103-.143.204-.211.298.068-.094.138-.195.211-.298m.304-.429c-.078.104-.152.211-.228.318.076-.107.15-.213.228-.318m-2.074.844c.186-.209.411-.042.631.133-.22-.174-.445-.342-.631-.133M285.559 184.983l-.013.031.013-.031M285.666 184.745c-.002.003-.004.007-.007.009.003-.002.005-.006.007-.009m.02-.027c-.005.005-.009.012-.012.017a.136.136 0 0 1 .012-.017m.013-.02v.001zm-5.856.211c.36.029.692-.006.926-.273a.94.94 0 0 0 .144-.214l-2.041.387-.124-.019.011.006c.213.112.169.301.061.491l-.043.046a2.481 2.481 0 0 0-.296.417c.059-.106.231-.278.339-.462.155-.169.334-.309.549-.401l-.494-.077c.191.008.369.014.516.039a.42.42 0 0 0 .049.009 1.465 1.465 0 0 0-.07.029c.154.016.312.027.473.022m-7.819 3.123c.337-.093.804-.396 1.143-.488-.338.092-.805.394-1.143.488m-1.714-1.52c-.215.244-.082.465.366.487l.383-.629c-.972-.267-1.929-.505-2.788.379l-.627-.376a.48.48 0 0 0-.114.095c-.172.195-.156.505-.196.78 1.029.079 2.026-.061 3.043-.803a.704.704 0 0 0-.067.067m85.834-10.999a4.504 4.504 0 0 1-.421.338c.142-.118.283-.23.421-.338m-85.632 10.83l-.135.102c.039-.033.083-.068.135-.102" clip-path="url(#bb)" fill="#bdcd00"/><path clip-path="url(#bb)" d="M533.185 388.719c.14-1.502-3.992-3.628-5.316-4.63-1.621-.753-5.333-1.003-8.233 1.252-10.021 7.135-29.023 19.779-29.98 34.425-1.059 16.648 26.683 15.522 26.601 21.655 0 4.257-20.025 10.642-20.999 11.892-2.318 2.504-.654 5.136 2.829 5.259 1.458.25 25.123-11.142 25.403-16.271.446-7.512-5.761-8.517-12.846-11.642-7.73-3.008-14.44-4.007-14.302-11.895.015-3.631 4.558-11.642 11.662-17.151 11.456-8.887 13.296-11.515 17.576-11.642 1.001 0 2.112 1.503 4.49 1.503 2.254 0 3.123-1.376 3.115-2.755m-59.613 13.647c-3.911 3.002-6.737 4.131-10.265 6.383-5.331 3.257-15.222 5.385-15.222 5.385s5.877-5.635 11.201-8.137c8.196-3.881 14.286-3.631 14.286-3.631m19.768 18.526c-2.983-2.255-5.532 2.252-6.842 4.007-1.562 1.753-23.325 17.274-33.28 17.648-5.303.252-7.756-2.879-9.346-6.633-3.848-8.014-.047-14.648-.047-14.648 8.328-2.502 14.748-4.128 20.537-7.133 9.917-5.133 21.948-13.02 20.541-14.272-11.509-9.263-41.205 2.255-48.456 20.655-4.086 10.39-.036 22.907 8.582 27.29 12.748 6.509 42.435-17.024 45.873-18.776 3.234-2.005 5.274-5.759 2.438-8.138m-50.74-34.551c-2.719-3.755-7.297 3.757-8.188 5.259-.597 1.25-12.906 14.27-22.499 24.659-9.637 10.642-18.967 21.657-18.967 21.657-.546-4.004-.583-6.635-.79-9.013-.647-8.388.014-10.014-.51-16.275-.892-7.008-4.185-11.768-7.629-9.263-2.039 1.628-.205 8.264.473 11.518.552 3.255.863 14.27 2.028 25.412.288 2.628.119 7.135 2.504 8.514 3.402 2.002 7.438-3.131 9.367-6.262 2.796-4.504 29.625-36.678 36.075-41.308 5.34-4.006 11.058-10.891 8.136-14.898m-64.711 16.275c.971-3.381-.758-5.633-3.159-5.509-4.175.249-4.932 7.388-6.521 14.272-4.688 20.904-8.332 33.046-5.952 35.175 2.254 2.128 5.456 1.002 6.14-.75 2.408-5.133-1.243-2.881 1.125-12.771 1.111-4.882 7.374-26.913 8.367-30.417m7.625-41.813c.647-2.252-.548-4.004-2.425-4.004-3.254 0-2.885 2.878-6.341 8.261-3.893 5.759-4.423 10.892-3.266 12.144.949 1.003 2.731.124 3.638-.752 1.574-1.126.949-3.255 3.643-7.885 2.335-4.007 4.337-6.135 4.751-7.764m-16.917 34.175c.324-3.254-4.205-3.128-6.812-3.254-10.176-.5-20.045 1.502-20.045 1.502 2.562-8.135 3.668-10.14 5.742-17.65 3.349-11.892 2.279-15.772-.723-15.772-4.257 0-3.704 7.512-4.483 10.516-3.68 13.771-7.243 24.033-7.243 24.033-7.864 2.005-9.602 2.631-17.223 5.386-7.349 2.628-7.776 3.628-8.731 5.506-1.003 2.129.714 3.757 2.981 4.381 1.437.376 3.402-2.252 9.499-4.881 4.881-2.128 11.258-3.504 11.258-3.504-1.574 5.38-2.517 7.885-4.961 16.774-3.627 12.768-4.621 20.528-5.99 26.161-.242 1.376-.794 6.636 3.169 6.886 5.441.376 3.996-5.633 4.069-6.759 2.06-16.651 10.464-44.441 10.464-44.441 4.684-1.002 13.633-2.754 21.393-2.754 2.13-.001 7.203 1.751 7.636-2.13m-59.943 30.421c.684-1.752-.671-4.007-3.227-3.004-1.591.499-45.341 26.414-56.263 18.776-11.584-8.138 17.814-34.299 21.622-35.302 2.512-.749 4.514 1.379 6.614.127 4.91-3.005 7.752-9.89-1.379-8.514-13.249 2.005-43.191 32.673-35.406 45.316 11.358 18.655 67.65-15.897 68.039-17.399m-81.813-23.033c-3.911 3.002-6.737 4.131-10.264 6.383-5.33 3.257-15.219 5.385-15.219 5.385s5.875-5.635 11.199-8.137c8.194-3.881 14.284-3.631 14.284-3.631m19.767 18.526c-2.984-2.255-5.529 2.252-6.84 4.007-1.561 1.753-23.327 17.274-33.282 17.648-5.303.252-7.755-2.879-9.345-6.633-3.845-8.014-.046-14.648-.046-14.648 8.329-2.502 14.75-4.128 20.536-7.133 9.918-5.133 21.95-13.02 20.543-14.272-11.512-9.263-41.207 2.255-48.458 20.655-4.084 10.39-.033 22.907 8.583 27.29 12.748 6.509 42.435-17.024 45.873-18.776 3.232-2.005 5.271-5.759 2.436-8.138M197.3 359.051c-2.246-2.879-4.11-2.252-5.98-.877-1.745 1.379-4.144 12.145-8.515 28.417-5.733 21.154-17.553 65.472-14.342 67.85 5.383 4.257 6.817-3.88 7.244-7.011 1.067-11.016 4.716-28.166 9.654-44.814 10.806-36.43 13.957-40.811 11.939-43.565m-20.654 0c-2.246-2.879-4.109-2.252-5.98-.877-1.745 1.379-4.143 12.145-8.514 28.417-5.734 21.154-17.554 65.472-14.343 67.85 5.383 4.257 6.817-3.88 7.244-7.011 1.067-11.016 4.718-28.166 9.655-44.814 10.804-36.43 13.955-40.811 11.938-43.565M136.155 410.5c2.018 7.011-1.074 13.896-5.603 20.405-3.408 5.133-14.584 13.146-19.968 11.018-5.28-2.005-5.164-11.894-2.358-17.15 9.842-18.903 20.35-20.278 20.35-20.278l-.015-.627c5.501.753 6.628 2.879 7.594 6.632m6.797 4.759c.388-14.27-9.672-18.276-14.495-17.903-6.723.503-14.94 6.636-24.754 22.537-7.693 12.391-3.515 24.909 1.837 27.913 8.78 4.883 36.642-9.014 37.412-32.547m-39.719 10.14c.685-1.752-.67-4.007-3.225-3.004-1.59.499-45.343 26.414-56.264 18.776-11.583-8.138 17.816-34.299 21.623-35.302 2.511-.749 4.514 1.379 6.613.127 4.911-3.005 7.751-9.89-1.379-8.514-13.247 2.005-43.19 32.673-35.405 45.316 11.357 18.655 67.647-15.897 68.037-17.399" transform="translate(654.404 -329.112)" fill="#707173"/><path d="M442.743 103.348c.239 15.646 9.866 26.115 23.708 26.115 15.162 0 24.79-11.312 24.79-27.678 0-11.073-4.814-17.209-15.645-21.423-6.859-2.647-12.997-3.73-17.089-6.738-3.491-2.648-5.056-5.776-5.056-10.229 0-8.426 5.776-14.683 14.442-14.683 7.821 0 12.756 5.174 13.6 14.561h7.941c-.843-14.56-8.905-22.623-21.541-22.623-13.839 0-22.865 9.987-22.865 23.226 0 11.19 5.656 17.09 17.689 21.181 11.914 3.972 20.098 5.896 20.098 18.291 0 10.472-6.137 17.331-16.246 17.331-9.026 0-15.404-6.62-15.646-17.33zm-47.415-22.743V50.638h35.981v-8.425h-44.406v85.563h44.406v-8.3h-35.981V89.028h35.981v-8.424zm-24.31-38.39h-8.423v85.562h8.423zm-73.167 44.528v7.58h43.203c-3.851 16.366-17.933 27.078-33.215 27.078-19.616 0-35.262-15.525-35.262-36.824 0-19.015 14.804-35.864 35.142-35.864 11.553 0 20.458 4.935 28.401 15.044h10.35c-7.942-14.803-21.54-23.226-38.269-23.226-12.637 0-22.746 4.09-31.171 12.394-8.785 8.666-13.356 19.617-13.356 31.53 0 25.635 18.895 45.01 43.443 45.01 23.708 0 42.481-17.45 43.925-42.722zm-89.656-36.105h12.394c8.064 0 14.08 0 18.774 4.212 4.093 3.731 6.138 8.664 6.138 14.681 0 9.75-7.22 16.97-18.293 16.97h-8.062l25.393 41.275h9.989l-20.7-33.454c12.035-.842 20.7-11.914 20.7-24.912 0-8.905-4.213-17.448-11.072-22.262-6.018-4.212-12.518-4.935-20.58-4.935h-22.985v85.563h8.304zm-59.09 29.967V50.638h35.983v-8.425H140.68v85.563h44.408v-8.3h-35.983V89.028h35.983v-8.424zm-31.89 36.944L70.28 42.214H60.171v85.563h8.304l-.963-75.454 46.934 75.454h10.108V42.214h-8.303zM8.423 80.605V50.638h35.984v-8.425H0v85.563h44.408v-8.3H8.423V89.028h35.984v-8.424zM21.18 33.91l15.764-20.579h-8.905l-12.275 20.58z" fill="#707173"/></symbol><symbol viewBox="-33.89 -43.05 28.87 28.87" overflow="visible" id="fleche_droite" xmlns="http://www.w3.org/2000/svg"><path clip-path="url(#SVGID_2_)" d="M-9.591-26.222s3.783-2.428 0-4.855l-17.631-11.322s-3.783-2.428-3.783 2.067v23.361s0 4.496 3.783 2.068z"/></symbol><symbol viewBox="-33.89 -43.05 28.87 28.87" overflow="visible" id="fleche_gauche" xmlns="http://www.w3.org/2000/svg"><path d="M1.682 16.831s-3.783-2.428 0-4.855L19.313.654s3.783-2.428 3.783 2.067v23.361s0 4.496-3.783 2.068z" clip-path="url(#SVGID_2_)" transform="translate(-31.006 -43.053)"/></symbol><symbol viewBox="-22.8 -30.92 70.26 70.26" overflow="visible" id="picto_capital" xmlns="http://www.w3.org/2000/svg"><path d="M44.252-5.372l3.204-.645-6.702-1.106 1.37 1.475-4.294.503 1.616 1.676-.917.193c-8.237-15.438-27.996-13.637-32.863-12.49-8.477 1.997-14.875 5.125-14.875 5.125-5.125-2.875-6.875-1.5-6.875-1.5-1.125 4 1.25 8.375 1.25 8.375-4.375 4.75-3.75 11.292-3.75 11.292-2.375.417-5 3.708-4 8.833s7.625 5.125 7.625 5.125c2.125 4.25 4.875 6 4.875 6l.375 7 3.875.25.125-4.375 1.125.5.5 6.5h5.5l-.5-4.249s-13.625-.126 12.625-.001c1.127.005 2.21-.026 3.25-.09.505-.031 1-.07 1.486-.116.298-.028.58-.07.87-.104l.456 1.654h4.375l-.329-2.446c1.228-.3 2.382-.649 3.453-1.048l.563 4.963s4.5.125 4.5.078c0-.028-.347-5.796-.618-7.178 9.466-5.706 10.618-15.088 10.618-15.088.021-5.756-.874-10.426-2.378-14.242l3.964-.913-1.765-1.904 3.401-.774zM-13.022-.141c.587 0 1.062.868 1.062 1.938 0 1.07-.476 1.938-1.062 1.938-.586 0-1.062-.868-1.062-1.938 0-1.07.475-1.938 1.062-1.938zm-5.437 14.75c-.587 0-1.062-.434-1.062-.969 0-.535.476-.969 1.062-.969.586 0 1.062.434 1.062.969 0 .535-.475.969-1.062.969zm4.375.968c-.587 0-1.062-.434-1.062-.969 0-.535.476-.969 1.062-.969.586 0 1.062.434 1.062.969 0 .535-.475.969-1.062.969zm1.062 4.782c9.438-8.625-1.062-13.625-1.062-13.625s6.625-2.5 8.375 4.125-7.313 9.5-7.313 9.5zm7.313-14.135c-.587 0-1.062-.868-1.062-1.938 0-1.07.476-1.938 1.062-1.938.586 0 1.062.868 1.062 1.938 0 1.07-.475 1.938-1.062 1.938zm10.75-19.74c10.991-3.274 16.5 0 16.5 0v2.125c-7.625-3-16.5 0-16.5 0zm-6.125 11.5s-3-5.125-1.875-7.375 7.75 2.125 8.5 2.5-4-.75-6.625 4.875zm26.226 16.107L7.215 27.987l5.696-9.31-5.696-.104 5.83-10.09H4.377L13.34-7.123h11.654l-5.827 9.711 7.77-.149-8.517 11.652z" fill="#00afec"/><circle stroke-miterlimit="10" cx="13.308" cy="-21.061" r="7.37" fill="#00afec" stroke="#fff"/><path d="M15.656-17.488c-.408.229-1.104.456-1.87.456-1.189 0-2.256-.479-2.927-1.367a3.377 3.377 0 0 1-.672-1.56h-.779v-.852h.66v-.203c0-.12.012-.24.012-.36h-.67v-.852h.802a3.637 3.637 0 0 1 .828-1.631c.672-.779 1.631-1.235 2.771-1.235.72 0 1.367.168 1.8.36l-.337 1.367a3.604 3.604 0 0 0-1.343-.288c-.564 0-1.09.204-1.463.647-.18.192-.3.468-.384.779h2.986v.852h-3.166c-.012.12-.012.24-.012.372v.191h3.178v.852h-3.01c.084.36.216.636.396.84.384.432.947.611 1.547.611.552 0 1.116-.18 1.367-.312z" fill="#fff"/></symbol><symbol viewBox="-26.41 -28.93 75.85 75.85" overflow="visible" id="picto_coop" xmlns="http://www.w3.org/2000/svg"><circle cx="11.381" cy="-20.558" r="8.373" fill="#c3a575"/><circle cx="-14.429" cy="-3.811" r="8.373" fill="#c3a575"/><circle cx="37.466" cy="-3.811" r="8.374" fill="#c3a575"/><path d="M-17.091 6.861s-18.335 25.626 27.812 40.057c0 0-29.734-24.341-.777-42.357 0 0-4.701-6.539-13.561-5.535 0 0-3.139 8.639-13.474 7.835zM40.254 6.861S58.59 32.487 12.442 46.918c0 0 29.734-24.341.777-42.357 0 0 4.701-6.539 13.562-5.535 0 0 3.137 8.639 13.473 7.835zM3.009-11.807S-.973-9.082-2.562-3.812c0 0 6.67-1.882 14.004 6.23 0 0 5.867-7.833 13.738-5.583 0 0-1.125-4.584-5.426-8.643 0 0-5.161 2.892-8.312 2.892s-8.433-2.891-8.433-2.891z" fill="#c3a575"/><path d="M18.929 20.871c-.278.318-.688.291-1.334.701a.392.392 0 0 0 .061-.055c.197-.223-.764-.084-1.235.388-.382.404-.928.553-1.513.627-.587.079-1.207.088-1.767.241-.278.075-.586.084-.927.129-.882.191-1.761.225-2.652.173a19.817 19.817 0 0 1-2.776-.375c-.519-.114-.924-.415-1.302-.658-.149-.069-.304-.145-.459-.199-.079-.03-.155-.058-.226-.088a2.016 2.016 0 0 1-.193-.106 2.195 2.195 0 0 1-.479-.384c-.134-.143-.262-.272-.354-.437.121.164.253.272.378.403.064.062.126.131.203.19.076.058.155.118.246.185.05.033.079.041.087.03.036-.042-.174-.347-.267-.461-.038-.08-.254-.014-.296-.098a.874.874 0 0 1-.171-.198c-.044-.082-.085-.168-.131-.253-.028-.082-.146.034-.161-.006a.626.626 0 0 1-.085-.172c-.018-.06-.027-.126-.036-.183-.016-.114-.034-.21-.099-.262-.044-.045-.093-.084-.133-.126-.036-.042-.077-.081-.114-.122-.039-.054-.08-.11-.11-.176-.009-.043-.015-.094-.021-.142a5.683 5.683 0 0 1-.064-.473.488.488 0 0 0 .051-.008.245.245 0 0 0-.063-.177c-.001-.017-.003-.034-.003-.052.002-.003.003-.004.003-.007.007-.006.01-.015.012-.026l-.018-.006a3.807 3.807 0 0 1 .006-.339l.015.002a.77.77 0 0 0 .22.526c-.027-.02-.044-.021-.055-.01-.011.014-.014.042-.002.086l.102.043c-.007-.091-.011-.178-.037-.257a.407.407 0 0 0-.133-.224s.017-.08.03-.119c-.027-.049-.079-.04-.125-.046v-.119a.961.961 0 0 1 .147.183l.095.116c.101.46.315.865.569 1.216-.008.046-.026.086.017.109a.408.408 0 0 1 .109.05c.039.05.076.1.116.147l.037.059-.008-.032c.103.097.208.194.311.295.019.027.042.05.058.067.064.084.132.168.233.145.021.017.043.031.062.045l-.019.004.03.004c.085.067.187.11.28.165.04.063.081.137.131.194-.051-.058-.091-.131-.131-.194.093.049.184.104.28.149.1.04.198.082.3.125.656.25 1.322.402 2 .504.683.097 1.383.138 2.128.104.807-.04 1.58-.156 2.325-.324.745-.168 1.463-.259 2.175-.403.713-.141 1.425-.331 2.122-.702.542-.271 1.61-.461 2.151-.604.789.051.633.833.605.885-.057.144-.123.25-.196.333m-13.848.262c.01.009.024.011.045.008.058.001.139-.028.216-.045.078.075.217.108.345.085-.089-.125-.214-.111-.345-.085-.077.017-.158.046-.216.045-.021.002-.035 0-.045-.008m-.171-.139c.044-.025.072-.021.094-.006-.022-.014-.049-.019-.094.006m-.716-.721c.044.065.098.116.171.105-.089-.083-.177-.166-.266-.246-.005-.006-.007-.013-.011-.018v.001c.005.016.003.026-.002.034-.01.011-.028.013-.048.013a.325.325 0 0 0-.093-.011c.018 0 .06.011.093.011a.339.339 0 0 1 .107.043c.016.024.032.048.049.068m-1.147-1.314l-.006.056h.006c.004-.019.01-.035.016-.057zm14.548 2.613a.557.557 0 0 1-.08.051c.027-.017.051-.034.08-.051M4.156 20.213c-.003 0-.006-.003-.011-.007l-.045-.073.053.073c0 .004.002.007.003.007m-.915-1.309M7.511 14.911a.318.318 0 0 1-.077.062c-.072.038-.072-.053-.177.075-.003.005-.14-.081-.144-.075.04-.067.074.014-.008.088-.062-.008-.163.023-.236.113-.032.04-.138-.101-.156-.04-.025.092-.138-.03-.181.021a.488.488 0 0 1-.3.163c-.174.038-.374.048-.514.165-.067.062-.162.076-.251.127-.212.18-.502.352-.732.455-.226.103-.357.314-.547.487-.049.044-.147.088-.147.088-.071.013.014.405-.053.423-.015.009-.104-.17-.115-.157-.02.024-.228.132-.239.161-.013.028.052.247.036.266 0 .003-.002.005-.005.007a.02.02 0 0 0-.006.011c-.062.072.122.223.04.266.064-.069-.132-.216-.056-.285l.002-.006c.039-.047-.157-.056-.213-.034-.003 0-.006.002-.006.003-.006.007.004.027.016.051.012.021.022.043.016.051l-.006.001-.002.002c-.027.034.181.151.123.174-.003 0-.005.001-.006.004-.004.005.013.018.03.031l.034.029-.004.001c-.051.033-.18.02-.205.052a.022.022 0 0 0-.005.017c.002.038.005.07.012.104 0 .02-.001.038-.012.052a.226.226 0 0 1-.043.024c-.03-.024-.073-.042-.116-.062 0 .021.017.055.017.074 0-.02-.017-.054-.017-.074.043.021.086.038.116.062a.59.59 0 0 0-.164.122c-.007-.004-.01-.01-.017-.014a.1.1 0 0 1 .009.018c-.032.032-.067.065-.097.102l-.01-.003c.026-.055.03-.109-.018-.188.018.023.042.026.056.01l.004-.006-.05-.041c-.014.012-.028.023-.04.037-.029.034-.038.074.014.123l-.049.026c.012.021.05.029.082.038l-.018.033a.4.4 0 0 1-.11-.135c.021-.078.042-.155.07-.229a1.99 1.99 0 0 1 .083-.215c.021 0 .043.004.048-.004.002-.003.002-.006.002-.011a.134.134 0 0 1-.025-.052l.025-.06.022-.018-.016.004.068-.139a.138.138 0 0 1 .026-.022c.013-.01.028-.018.038-.028.012-.016.014-.033-.005-.062l.014-.025.006.011-.002-.015.059-.102c.038-.067.085-.132.129-.195.034-.05.071-.096.107-.14.285-.348.491-.974.867-1.244.232-.17.447-.436.667-.607.236-.185.326-.335.635-.466.24-.102.466-.157.775-.247.178-.166.578-.204.796-.234 1.065.335.459.818.459.847-.024.149-.263.103-.303.154m-4.35 3.027c.007.012.018.039.03.057a.195.195 0 0 0-.03-.057m.126-.206a.038.038 0 0 0-.008.024.215.215 0 0 1 .017.082l.021-.067.027-.062c-.024.008-.044.01-.057.023m.6-.882l.087-.021c.019-.039-.008-.068-.023-.1a.742.742 0 0 0-.145.134l-.012.013a.586.586 0 0 0-.097.178c.009-.046-.019-.055-.067-.015l.006.083c.057-.034.032-.257.079-.298l.036-.037c.027-.033.124.115.136.063m.061-.128l.004.009a.66.66 0 0 0 .07-.047v-.004l-.074.042m-.757.7c.02-.003.035.01.045.024a.221.221 0 0 0 .028.04c-.007-.008-.016-.025-.028-.04a.091.091 0 0 1-.01-.047.236.236 0 0 0-.035.023m.335-.446c.016.041.034.079.041.108.005.009.005.014.002.017.003-.003.003-.008-.002-.017-.007-.028-.026-.067-.041-.108m-.024.163c.002.001.002.005.003.006-.001-.002-.001-.005-.003-.006m.03-.038h0m-.031.034l.001.004-.001-.004M3.489 17.101c.006-.005.022-.003.041 0h.001-.001c-.019-.002-.035-.004-.041 0m.008.034H3.5h-.003m-.25.242c.005-.003.009-.005.012-.011.012-.015.015-.034-.007-.064l-.054.115c.01-.008.014-.017.024-.021.001-.003.003-.003.003-.003v.006c.008-.007.016-.012.022-.022m.279-.401a.038.038 0 0 0 .027-.019c.019-.022.022-.061.011-.11-.023 0-.034.004-.045.014-.018.025-.008.07.007.115M-.78 28.884a.331.331 0 0 0-.119.019c-.049 0-.057-.041-.075-.087.064.026.129.048.194.068M-.54 28.976a.543.543 0 0 0-.057-.035l.033.011zM-.276 29.104a.506.506 0 0 1-.168-.07.395.395 0 0 1 .168.07" fill="#c3a575"/><path d="M-.444 29.034a.319.319 0 0 0-.116.011.159.159 0 0 0 .027-.021c.011-.014.011-.029-.003-.047l-.004-.001.096.058M-.56 29.045c-.027.014-.065.022-.082.028a.494.494 0 0 1 .082-.028m-.082.028l-.002.003.002-.003M.489 30.168c-.009.01-.036.01-.083-.011a12.254 12.254 0 0 1-.922-.407l-.723-.493a.8.8 0 0 0-.222-.076c.103.014.208.03.322.051.155.018.245.271.452.391.009.01.019.001.032-.015a.175.175 0 0 0 .016-.019c.006-.006.01-.013.016-.021.022-.024.047-.041.073-.015.145.103.256.229.412.272.059.06.23-.079.289-.021.118.078.374.319.338.364M-1.867 28.576l-.103.041c-.05-.029-.066-.059-.05-.074.005-.011.021-.015.042-.017-.208 0-.375-.067-.533-.161h.002a.072.072 0 0 1 .018-.021.095.095 0 0 1 .015-.02.094.094 0 0 1 .079-.039c.022.032.071.096.071.096.198-.035.326.079.459.195M-2.511 28.365l-.01.011c-.031-.022-.061-.047-.091-.068l.006-.001.095.058M17.535 30.037c-.305.344-.714.267-1.413.647a.482.482 0 0 0 .074-.06c.172-.195-.772-.124-1.264.307-.41.376-.96.484-1.545.517-.582.038-1.197.004-1.757.124-.281.055-.581.05-.922.075-.875.15-1.729.143-2.589.093-.861-.048-1.729-.153-2.657-.221-.492-.046-.9-.26-1.296-.394-.292-.071-.624-.046-.865-.086a4.267 4.267 0 0 1-.989-.325c.341.097.585.193.97.289.047.01.071.009.082-.001.039-.046-.252-.252-.381-.318-.067-.05-.218.106-.282.056-.159-.035-.291-.129-.448-.216-.022-.019-.04-.01-.057.009-.009.009-.018.023-.027.035-.006.014-.015.025-.021.034-.006.009-.012.011-.02.005-.224-.09-.347-.336-.504-.327a50.879 50.879 0 0 0-.327-.007.681.681 0 0 1-.189-.042l-.114-.074c-.272-.168-.585-.362-.875-.529l.009-.013c-.033-.017-.069-.031-.104-.047.104-.055.376-.079.376-.079l.338.109c.113.03.225.06.335.092.223.055.438.114.656.156.024.039.041.081.089.073a.298.298 0 0 1 .117-.034c.064.013.126.025.19.036.021.008.04.02.062.027l.001.002c.021.02.021.037.006.05-.002.007-.011.011-.019.018a.378.378 0 0 0-.082.043c.018-.011.055-.024.082-.043a.292.292 0 0 1 .113-.021l-.102-.048-.026-.021c.143.024.286.054.433.072.032.011.063.021.088.031.1.044.199.086.28.019l.079.011-.016.01.03-.009.331.043.66.064c1.439.118 2.765.23 4.262.186.81-.038 1.589-.115 2.343-.251.753-.131 1.473-.175 2.193-.269.719-.093 1.438-.232 2.159-.553.556-.229 1.627-.34 2.168-.448.39.056.524.271.569.482a.794.794 0 0 1-.027.442 1.269 1.269 0 0 1-.177.279m-13.755.229a.43.43 0 0 0 .361-.025c-.122-.089-.248-.041-.361.025m-.19.11c.059-.026.123-.07.189-.109-.066.039-.13.082-.189.109M3.342 30.32l-.003.004.003-.004m0 0zm-.77-.302c-.125-.016-.247-.039-.368-.06.032.012.063.021.085.033l.01.005h-.013a.471.471 0 0 0 .077.027c.073.032.145.045.209-.005m-1.553.114zM.991 30.157l.002-.002-.002.002m.101-.145v0m-.214-.011c.061.009.156-.004.217.004-.061-.008-.156.005-.217-.004m-.238-.283c-.016.021.002.049.061.072l.097-.059c-.151-.09-.297-.19-.488-.126l-.084-.086a.091.091 0 0 0-.057.031c-.018.018-.028.044-.043.064.172.071.348.112.556.083-.022.007-.033.015-.042.021m15.481.966c-.024.013-.051.029-.083.045.027-.015.055-.032.083-.045M.707 29.696l-.026.002a.184.184 0 0 1 .026-.002" fill="#c3a575"/><path d="M2.462 30.044a.378.378 0 0 1-.1-.02c-.021-.009-.044-.017-.064-.027a.364.364 0 0 1 .164.047" fill="#c3a575"/><path d="M2.572 30.018c-.064.05-.136.036-.209.006a.37.37 0 0 0 .1.02.375.375 0 0 0-.164-.047l-.01-.005c-.022-.012-.053-.021-.085-.033.121.02.243.044.368.059M9.691 27.548a.24.24 0 0 0-.044.037l-.019.025c-.026.021-.042-.017-.064-.047zM9.829 27.53l-.023.004.043.012zM10.03 27.566a.178.178 0 0 1-.112-.002c.03-.014.066-.014.112.002M9.918 27.564a.183.183 0 0 0-.056.042c-.003.003-.004.007-.007.009.015-.025.019-.052-.005-.068v-.001a.45.45 0 0 0 .068.018" fill="#c3a575"/><path d="M9.817 27.677v-.003.003m0-.003a.497.497 0 0 1 .038-.059c-.011.022-.029.043-.038.059M10.723 28.298a.065.065 0 0 1-.042.013c-.242-.008-.401-.039-.62-.062-.179-.058-.349-.128-.528-.18-.049-.007-.096.01-.144.021a3.02 3.02 0 0 1 .193-.083c.091-.052.205.154.353.186.001.004.005.004.006 0 .005-.005.008-.028.011-.052.005-.023.009-.049.019-.06.006-.007.012-.007.02 0 .108.042.203.111.301.107.015.01.03 0 .046-.019.011-.012.021-.028.033-.042.009-.016.021-.03.03-.044.016-.019.032-.026.047-.019.091.036.313.189.275.234M8.956 27.783c-.05-.008-.062-.04-.034-.071a.433.433 0 0 1-.334.08c.009-.038.009-.084.033-.109.004-.004.006-.008.01-.01l.063.055c.001-.001.003-.001.003-.004.103-.114.202-.068.305-.021zM8.586 27.806a.484.484 0 0 0-.067-.023l.003-.004.068.014zM20.939 26.444c-.164.187-.406.143-.754.437a.04.04 0 0 1 .012-.015c.092-.104.004-.16-.143-.151a.804.804 0 0 0-.58.363c-.035.06-.074.111-.113.156-.452.515-1.236.242-1.824.499-.162.068-.344.072-.547.119-1.011.391-2.023.287-3.126.486-.294.038-.57-.077-.827-.131-.185-.006-.369.097-.517.116a1.71 1.71 0 0 1-.637-.062c.218.005.379.037.619.032.023-.002.036-.007.042-.015.04-.044-.19-.187-.285-.217-.013-.009-.027-.002-.039.014a.264.264 0 0 0-.034.049c-.012.018-.022.034-.033.047-.015.017-.028.022-.044.017-.097.009-.194-.057-.302-.092-.01-.005-.017-.005-.021 0-.009.012-.013.038-.015.062-.002.023-.004.047-.01.052 0 .003-.002.004-.006.003-.147-.023-.274-.223-.361-.168-.067.034-.128.062-.188.094a.355.355 0 0 1-.117.02c-.026-.014-.053-.024-.081-.036a5.082 5.082 0 0 0-.625-.207l.003-.016c-.024 0-.047-.004-.071-.007a.312.312 0 0 1 .052-.071c.059-.067.139-.135.139-.135a8.06 8.06 0 0 0 .841-.084c.023.03.042.065.068.044a.21.21 0 0 1 .058-.066l.119-.021.042.009-.022-.012.268-.053c.022.004.042.005.059.008.054.014.108.026.146-.016.006-.009.016-.021.022-.037l.046-.011-.006.016.015-.017.202-.045c.13-.029.263-.06.397-.092.87-.209 1.681-.313 2.58-.531.485-.127.946-.271 1.396-.449.886-.347 1.765-.288 2.617-.878.326-.212 1-.269 1.344-.321.508.171.42.911.404.955-.046.177-.097.283-.163.358m-8.31 1.02c.057.019.123-.008.176-.067.011-.011.02-.026.03-.038-.063-.04-.111-.019-.153.028a.519.519 0 0 0-.053.077m-.157.134c.022.025.046.047.062.028-.016.018-.04-.003-.062-.028m.07.017l-.005.01.005-.01m.087-.151c-.03.053-.059.112-.085.149l-.001.002.001-.002c.027-.037.055-.097.085-.149M12.404 27.576a.093.093 0 0 1 0 0m.003-.001zm-.651.015c.037.004.071.002.097-.026a.106.106 0 0 0 .02-.037l-.224.045c.019.004.041.005.056.008l.006.001-.01.005c.02 0 .039.004.055.004m-.121-.022l.002.001c.022.016.021.041.008.067a.475.475 0 0 0-.037.063c.006-.015.025-.039.037-.063.004-.005.008-.011.012-.014a.15.15 0 0 1 .044-.038.629.629 0 0 1-.066-.016m-.731.442c.036-.011.088-.054.124-.065-.036.011-.088.054-.124.065m-.187-.223c-.03.037-.018.072.036.076l.041-.085c-.102-.035-.202-.072-.289.027l-.019.023s-.046-.036-.07-.051c-.003.001-.004.004-.006.005-.024.029-.021.076-.024.116a.428.428 0 0 0 .333-.113c.001.002-.001.002-.002.002m9.468-.906c-.016.013-.031.024-.049.04.018-.016.029-.028.049-.04m-9.453.893l-.012.012c.003-.004.006-.008.012-.012M9.786 24.405a.293.293 0 0 0-.078.062c-.036.021-.055-.016-.08-.049zM9.988 24.401c-.018-.004-.037-.009-.053-.011l.029-.002zM10.212 24.419a.277.277 0 0 1-.14 0 .222.222 0 0 1 .14 0M10.072 24.419a.24.24 0 0 0-.078.051c.015-.023.022-.051-.006-.068.026.005.055.014.084.017" fill="#c3a575"/><path d="M9.942 24.532l.002-.001-.002.001m.002-.001a.191.191 0 0 1 .033-.041c.006-.009.01-.013.018-.021l-.024.031c-.004.001-.006.006-.006.008l-.008.006a.054.054 0 0 0-.013.017M11.063 25.152c-.008.008-.024.014-.056.014-.302-.004-.499-.043-.771-.062-.223-.058-.432-.125-.658-.179-.062-.007-.12.006-.178.017l.242-.077c.112-.051.255.156.437.186.004.001.007.001.008-.002.008-.006.011-.029.016-.053.004-.021.01-.045.02-.055.008-.008.019-.011.03-.005.133.043.25.11.374.106.057.034.139-.152.195-.118.113.038.384.181.341.228M8.861 24.635c-.058-.009-.075-.039-.049-.065.005-.008.01-.011.016-.015a.635.635 0 0 1-.425.086c.007-.036.009-.079.033-.104.005-.007.011-.01.02-.016.026.02.083.058.083.058.125-.12.253-.075.383-.026zM8.399 24.655c-.031-.008-.059-.017-.085-.025l.003-.004c.027.004.055.012.086.015zM23.861 22.585c-.205.23-.51.203-.957.55.012-.008.02-.018.027-.025.098-.113-.025-.155-.219-.121a1.197 1.197 0 0 0-.637.356c-.018.021-.037.043-.055.068a1.126 1.126 0 0 1-.088.115c-.559.633-1.57.414-2.332.729-.203.084-.432.102-.681.167-1.271.473-2.541.431-3.923.689-.37.047-.714-.061-1.036-.101-.229.005-.462.112-.649.133a2.69 2.69 0 0 1-.793-.047c.271 0 .469.024.772.016.031-.001.047-.008.055-.016.042-.047-.236-.185-.352-.211-.023-.013-.045.008-.069.036l-.025.029a.225.225 0 0 0-.024.03c-.025.027-.05.047-.071.034-.122.014-.243-.048-.379-.079-.012-.005-.021-.004-.027.003a.13.13 0 0 0-.018.061c-.004.024-.006.045-.013.054-.002.001-.006.004-.009.001-.184-.019-.339-.221-.45-.165-.085.03-.162.062-.236.093a.484.484 0 0 1-.147.021 2.94 2.94 0 0 1-.101-.033c-.242-.079-.52-.139-.775-.203l.002-.016c-.028-.001-.057-.005-.087-.009a1.173 1.173 0 0 1 .246-.198c.37-.018.719-.057 1.057-.1.029.031.052.065.083.045.004-.006.007-.011.01-.013a.26.26 0 0 1 .064-.054l.149-.02.053.01-.024-.014.336-.061c.025.001.05.003.071.006.074.011.144.021.19-.029.006-.007.013-.019.019-.029l.06-.011-.01.017.02-.021c.084-.015.169-.032.253-.049.165-.033.333-.061.501-.1 1.091-.251 2.108-.38 3.233-.665.606-.15 1.181-.342 1.738-.549 1.111-.424 2.205-.444 3.256-1.128.406-.248 1.234-.381 1.656-.478.629.11.531.869.516.917a.944.944 0 0 1-.18.365m-10.387 1.697c.08.021.175-.018.248-.101l.009-.012c-.091-.046-.162 0-.22.067-.014.017-.028.032-.037.046M13.369 24.426zm.029-.035l-.028.033.028-.033m-.036.044l.001-.004-.001.004m.068-.09a.515.515 0 0 0-.029.041c.009-.014.018-.028.029-.041m.042-.061c-.009.015-.022.029-.031.045.009-.016.022-.03.031-.045m-.286.117c.024-.029.056-.004.087.018-.031-.022-.063-.047-.087-.018m.183-.189c.009.014.019.023.032.035a.207.207 0 0 1-.032-.035m-.203.228l-.001.006c-.001-.002.001-.003.001-.006m.013-.03l-.013.029c.004-.009.008-.021.013-.029m.005-.005l-.004.002.004-.002m0-.003zm-.809.03c.05.004.097 0 .129-.039a.086.086 0 0 0 .021-.028l-.283.054-.016-.002h.002c.028.016.021.041.007.069-.001.001-.004.001-.007.005a.476.476 0 0 0-.039.057c.008-.015.031-.038.046-.062a.173.173 0 0 1 .075-.056c-.022-.006-.045-.009-.066-.012.026 0 .048.001.07.005l.006.001c-.003 0-.006.002-.01.006a.716.716 0 0 0 .065.002m-1.077.43c.047-.014.111-.055.157-.067-.046.012-.11.054-.157.067m-.236-.211c-.03.034-.012.065.05.067l.052-.085c-.133-.038-.265-.07-.383.051l-.088-.05a.037.037 0 0 0-.015.013c-.024.027-.024.069-.029.105a.58.58 0 0 0 .42-.11c-.001.005-.007.007-.007.009m11.842-1.516c-.016.015-.035.029-.057.047.018-.017.039-.033.057-.047M11.09 24.629a.072.072 0 0 1-.02.014l.02-.014" fill="#c3a575"/></symbol><symbol viewBox="-28.93 -28.93 63.7 63.7" overflow="visible" id="picto_photovoltaique" xmlns="http://www.w3.org/2000/svg"><path fill="#b3d143" d="M-13.898-11.768l-7.282-2.188-1.622-14.975 7.316 3.625zM-7-9.603l-6.084-1.805-1.588-13.559 6.113 2.908zM-1.212-7.96l-5.084-1.636-1.552-12.187 5.101 2.402zM3.764-6.44L-.57-7.683-2.102-19.1l4.357 2.175zM-11.684 3.287l-7.203-.764-1.974-14.7 7.272 2.202zM-4.863 4.103l-6.018-.618-1.901-13.281 6.068 1.716zM.857 4.615l-5.03-.641L-6.01-7.94l5.068 1.409zM5.779 5.167L1.497 4.77-.3-6.376l4.327 1.325zM-9.184 18.34l-7.119.962-2.38-14.265 7.233.46zM-2.439 17.519l-5.947.829-2.265-12.867 6.032.262zM3.214 16.659l-4.977.562-2.158-11.504 5.033.193zM8.082 16.03l-4.236.628L1.747 5.911l4.307.293zM-6.573 31.548l-6.627 3.225-2.702-13.833 7.111-.94zM.027 29.415l-5.815 1.984-2.222-11.572 5.931-.909zM5.553 27.452L.686 28.988l-2.082-10.234 4.948-.782zM10.316 25.879l-4.14 1.454-2.002-9.484 4.236-.545zM23.298 8.044l5.35-3.428-5.35-3.429 3.637-5.211-6.256-1.112 1.359-6.207-6.207 1.361-1.111-6.257-5.211 3.636-3.428-5.35-2.333 3.641.606 3.222c.567-.06 1.143-.097 1.728-.097 8.652 0 15.666 6.765 15.666 15.109 0 7.061-5.027 12.972-11.812 14.631l.777 4.119 4.008 2.798 1.111-6.258 6.207 1.361-1.361-6.208 6.258-1.112z"/><path d="M5.489-9.106c7.629 0 13.815 6.105 13.815 13.636 0 6.065-4.018 11.201-9.566 12.971l.197 1.053c6.785-1.659 11.812-7.57 11.812-14.631 0-8.344-7.014-15.109-15.666-15.109-.585 0-1.16.037-1.728.097l.38 2.021c.253-.014.501-.038.756-.038z" fill="#fff"/><path d="M19.304 4.53c0-7.531-6.186-13.636-13.815-13.636-.255 0-.503.024-.755.038l5.003 26.569c5.55-1.77 9.567-6.906 9.567-12.971z" fill="#b3d143"/></symbol><symbol viewBox="-33.3 -28.93 58.75 58.75" overflow="visible" id="picto_production_energie" xmlns="http://www.w3.org/2000/svg"><path fill="#fcb731" d="M1.948-12.681l13-.25-14.25 19.5h11.25l-30 23.25 9.532-15.577-9.532-.173 9.754-16.885h-14.504l15-26.115h19.5z"/></symbol><symbol viewBox="-39.73 -37.23 36.97 36.97" overflow="visible" id="plus" xmlns="http://www.w3.org/2000/svg"><path fill="none" d="M-11.04-18.695h-20.401M-21.241-28.943v20.4"/><g transform="translate(-39.727 -37.15)"><defs><path id="ia" d="M0 0h36.972v36.815H0z"/></defs><clipPath id="ib"><use xlink:href="#ia" overflow="visible" width="100%" height="100%"/></clipPath><ellipse clip-path="url(#ib)" cx="18.487" cy="18.408" rx="16.921" ry="16.843" fill="none"/></g></symbol><symbol viewBox="-2.07 -0.98 34 34" overflow="visible" id="schema_souscrire" xmlns="http://www.w3.org/2000/svg"><ellipse fill="#FFF" cx="14.948" cy="17.852" rx="14.948" ry="15.067"/><path fill="none" stroke="#6E7072" stroke-width="5" stroke-linejoin="round" stroke-miterlimit="10" d="M6.427 13.112l7.472 13.603s6.022-21.669 11.47-24.496"/></symbol></svg>