<?xml version="1.0" encoding="utf-8"?>
<!-- Generator: Adobe Illustrator 16.0.0, SVG Export Plug-In . SVG Version: 6.00 Build 0)  -->
<!DOCTYPE svg PUBLIC "-//W3C//DTD SVG 1.1//EN" "http://www.w3.org/Graphics/SVG/1.1/DTD/svg11.dtd">
<svg version="1.1" id="Calque_1" xmlns="http://www.w3.org/2000/svg" xmlns:xlink="http://www.w3.org/1999/xlink" x="0px" y="0px"
	 width="566.93px" height="566.93px" viewBox="0 0 566.93 566.93" enable-background="new 0 0 566.93 566.93" xml:space="preserve">
<g>
	<path fill="#CAAC6F" d="M327.343,159.098c-2.041,2.313-4.992,2.101-9.688,5.089c0.204-0.146,0.354-0.28,0.457-0.398
		c1.414-1.605-5.56-0.612-8.955,2.812c-2.774,2.93-6.739,4.002-10.979,4.549c-4.243,0.571-8.739,0.64-12.793,1.739
		c-2.031,0.56-4.254,0.613-6.734,0.937c-6.385,1.392-12.743,1.622-19.203,1.26c-6.471-0.384-13.026-1.303-20.122-2.72
		c-3.761-0.835-6.703-3.009-9.444-4.783c-1.065-0.494-2.193-1.045-3.325-1.442c-0.56-0.214-1.117-0.406-1.634-0.626
		c-0.507-0.255-0.982-0.511-1.406-0.78c-1.333-0.843-2.519-1.699-3.476-2.774c-0.971-1.039-1.894-1.986-2.559-3.163
		c0.882,1.178,1.833,1.973,2.734,2.92c0.471,0.446,0.921,0.957,1.468,1.378c0.549,0.423,1.135,0.863,1.79,1.333
		c0.371,0.249,0.566,0.302,0.636,0.222c0.266-0.3-1.259-2.509-1.935-3.331c-0.281-0.575-1.844-0.113-2.144-0.71
		c-0.503-0.413-0.9-0.905-1.255-1.445c-0.319-0.588-0.604-1.208-0.952-1.823c-0.203-0.606-1.056,0.253-1.163-0.056
		c-0.279-0.395-0.471-0.821-0.621-1.242c-0.128-0.442-0.181-0.901-0.25-1.315c-0.131-0.832-0.247-1.522-0.725-1.909
		c-0.328-0.315-0.668-0.607-0.961-0.904c-0.281-0.304-0.553-0.598-0.823-0.889c-0.297-0.395-0.586-0.795-0.796-1.27
		c-0.078-0.319-0.112-0.688-0.165-1.034c-0.195-1.082-0.357-2.244-0.464-3.425c0.124-0.012,0.253-0.033,0.376-0.044
		c0.01-0.461-0.095-0.881-0.47-1.286c-0.007-0.13-0.012-0.26-0.017-0.391c0.01-0.008,0.017-0.017,0.027-0.028
		c0.045-0.05,0.073-0.121,0.078-0.21l-0.115-0.029c-0.026-0.837-0.016-1.666,0.035-2.463l0.11,0.018
		c0.081,1.39,0.501,2.738,1.584,3.821c-0.179-0.145-0.319-0.167-0.397-0.079c-0.082,0.094-0.098,0.303-0.021,0.624l0.751,0.313
		c-0.047-0.653-0.086-1.289-0.267-1.866c-0.171-0.584-0.395-1.132-0.968-1.622c0,0,0.128-0.578,0.234-0.861
		c-0.21-0.363-0.586-0.293-0.917-0.332c-0.01-0.287-0.009-0.576,0-0.867c0.334,0.274,0.744,0.843,1.071,1.315
		c0.368,0.463,0.674,0.851,0.674,0.851c0.732,3.334,2.291,6.271,4.132,8.811c-0.058,0.326-0.184,0.621,0.125,0.809
		c0.317,0.081,0.57,0.206,0.783,0.352c0.283,0.358,0.556,0.725,0.852,1.068c0.084,0.134,0.171,0.271,0.26,0.41l-0.07-0.232
		c0.758,0.718,1.512,1.429,2.268,2.143c0.131,0.204,0.302,0.357,0.418,0.507c0.473,0.592,0.965,1.201,1.693,1.039
		c0.148,0.104,0.3,0.212,0.451,0.32l-0.148,0.017l0.229,0.042c0.604,0.487,1.347,0.798,2.023,1.192
		c0.302,0.46,0.595,0.985,0.957,1.419c-0.362-0.434-0.655-0.959-0.957-1.419c0.683,0.355,1.336,0.756,2.042,1.081
		c0.717,0.298,1.442,0.601,2.176,0.905c4.759,1.824,9.565,2.927,14.501,3.651c4.938,0.714,10.027,0.998,15.421,0.755
		c5.841-0.291,11.441-1.127,16.851-2.346c5.387-1.214,10.579-1.88,15.758-2.913c5.167-1.029,10.316-2.412,15.388-5.108
		c3.91-1.943,11.666-3.336,15.592-4.37c5.709,0.374,4.574,6.043,4.381,6.418C328.331,157.741,327.867,158.503,327.343,159.098
		 M226.96,160.992c0.081,0.069,0.184,0.098,0.323,0.06c0.437,0.007,1.014-0.198,1.568-0.309c0.573,0.524,1.567,0.777,2.512,0.593
		c-0.642-0.89-1.569-0.799-2.512-0.593c-0.279-0.251-0.458-0.562-0.5-0.917c0.042,0.355,0.221,0.666,0.5,0.917
		c-0.554,0.111-1.132,0.316-1.568,0.309C227.144,161.09,227.041,161.061,226.96,160.992 M225.735,159.983
		c0.325-0.17,0.526-0.146,0.667-0.027C226.261,159.837,226.06,159.813,225.735,159.983 M220.545,154.779
		c0.32,0.462,0.69,0.824,1.235,0.763c-0.642-0.598-1.282-1.195-1.923-1.791c-0.026-0.044-0.055-0.091-0.082-0.136l0.003,0.014
		c0.032,0.115,0.014,0.194-0.032,0.246c-0.064,0.074-0.191,0.096-0.336,0.094c-0.223-0.049-0.454-0.074-0.675-0.078
		c0.139,0.003,0.432,0.076,0.675,0.078c0.267,0.061,0.527,0.158,0.774,0.319C220.295,154.454,220.413,154.621,220.545,154.779
		 M212.231,145.255l-0.038,0.384l0.032,0.005c0.034-0.13,0.072-0.265,0.109-0.399L212.231,145.255L212.231,145.255z
		 M317.654,164.187c-0.158,0.115-0.345,0.24-0.565,0.372C317.278,164.43,317.468,164.305,317.654,164.187 M220.265,154.343
		c-0.026-0.02-0.052-0.038-0.081-0.055c-0.11-0.18-0.217-0.354-0.321-0.529c0.139,0.191,0.272,0.37,0.369,0.528
		C220.243,154.306,220.255,154.324,220.265,154.343 M213.627,144.845c-0.056-0.051-0.111-0.104-0.164-0.158
		C213.515,144.729,213.571,144.783,213.627,144.845"/>
	<path fill="#CAAC6F" d="M244.569,115.905c-0.164,0.2-0.349,0.331-0.559,0.448c-0.522,0.293-0.519-0.376-1.278,0.548
		c-0.024,0.03-1.013-0.576-1.039-0.546c0.293-0.473,0.534,0.106-0.05,0.651c-0.462-0.074-1.181,0.161-1.726,0.824
		c-0.229,0.279-0.985-0.749-1.122-0.309c-0.187,0.674-1.002-0.208-1.314,0.171c-0.576,0.704-1.338,0.988-2.17,1.178
		c-1.275,0.277-2.717,0.337-3.73,1.203c-0.492,0.445-1.173,0.547-1.822,0.915c-1.531,1.296-3.638,2.551-5.299,3.297
		c-1.652,0.741-2.604,2.275-3.968,3.532c-0.366,0.311-1.08,0.631-1.08,0.631c-0.494,0.1,0.106,2.933-0.359,3.063
		c-0.112,0.066-0.763-1.232-0.842-1.137c-0.146,0.178-1.65,0.962-1.741,1.171c-0.092,0.207,0.384,1.789,0.267,1.929
		c-0.013,0.016-0.026,0.031-0.04,0.045c-0.019,0.025-0.037,0.048-0.058,0.072c-0.434,0.529,0.891,1.622,0.288,1.926
		c0.477-0.497-0.941-1.551-0.394-2.071c0.008-0.008,0.017-0.018,0.024-0.024c0.281-0.344-1.144-0.416-1.556-0.26
		c-0.023,0.001-0.039,0.007-0.047,0.019c-0.044,0.053,0.038,0.212,0.119,0.369c0.082,0.157,0.164,0.313,0.124,0.365
		c-0.01,0.012-0.026,0.018-0.05,0.018c-0.003,0.005-0.005,0.009-0.01,0.012c-0.201,0.245,1.304,1.097,0.896,1.262
		c-0.023,0.003-0.039,0.008-0.046,0.018c-0.035,0.042,0.089,0.146,0.215,0.243c0.128,0.099,0.257,0.191,0.241,0.212
		c-0.003,0.003-0.005,0.004-0.013,0.005c-0.385,0.236-1.303,0.133-1.492,0.365c-0.029,0.033-0.04,0.074-0.033,0.125
		c0.012,0.271,0.035,0.516,0.072,0.753c0,0.138-0.007,0.27-0.087,0.382c-0.099,0.052-0.201,0.106-0.302,0.161
		c-0.231-0.159-0.534-0.302-0.84-0.445c-0.003,0.145,0.115,0.388,0.112,0.526c0.003-0.138-0.115-0.382-0.112-0.526
		c0.306,0.143,0.609,0.286,0.84,0.445c-0.444,0.231-0.841,0.539-1.209,0.883c-0.035-0.025-0.068-0.059-0.098-0.099
		c0.021,0.044,0.04,0.091,0.056,0.139c-0.246,0.232-0.478,0.482-0.702,0.734l-0.075-0.024c0.194-0.391,0.223-0.785-0.131-1.355
		c0.126,0.169,0.309,0.197,0.414,0.068c0.011-0.014,0.021-0.029,0.031-0.047l-0.371-0.297c-0.103,0.085-0.205,0.177-0.286,0.275
		c-0.203,0.246-0.269,0.536,0.109,0.9c0,0-0.242,0.125-0.361,0.186c0.086,0.15,0.363,0.199,0.593,0.271
		c-0.042,0.08-0.084,0.158-0.124,0.239c-0.421-0.252-0.809-0.971-0.809-0.971c0.16-0.575,0.309-1.13,0.52-1.657
		c0.18-0.538,0.356-1.065,0.587-1.566c0.149-0.001,0.306,0.021,0.352-0.034c0.014-0.017,0.017-0.041,0.008-0.074
		c-0.101-0.146-0.148-0.267-0.167-0.375l0.183-0.45l0.153-0.109l-0.113,0.026l0.488-1c0.064-0.058,0.126-0.116,0.187-0.154
		c0.104-0.073,0.214-0.14,0.283-0.224c0.086-0.105,0.107-0.241-0.033-0.455l0.099-0.174l0.04,0.078l-0.021-0.109l0.427-0.74
		c0.283-0.482,0.618-0.934,0.943-1.416c0.249-0.352,0.507-0.688,0.771-1.012c2.068-2.516,3.543-7.038,6.289-9.015
		c1.682-1.236,3.235-3.138,4.831-4.396c1.695-1.339,2.36-2.426,4.602-3.372c1.739-0.734,3.385-1.142,5.621-1.799
		c1.281-1.191,4.187-1.487,5.765-1.692c7.727,2.427,3.332,5.921,3.338,6.131C246.593,115.87,244.863,115.547,244.569,115.905
		 M213.051,137.862c0.058,0.081,0.134,0.267,0.231,0.391C213.219,138.115,213.141,137.984,213.051,137.862
		c-0.003-0.004-0.004-0.008-0.007-0.011C213.046,137.854,213.048,137.857,213.051,137.862 M213.961,136.364
		c-0.033,0.042-0.055,0.094-0.055,0.164c0.087,0.223,0.124,0.414,0.128,0.593l0.145-0.48l0.203-0.462
		C214.215,136.232,214.046,136.263,213.961,136.364 M218.304,129.968c0,0,0.425-0.106,0.638-0.16c0.137-0.28-0.057-0.48-0.167-0.702
		c-0.391,0.275-0.75,0.583-1.053,0.951c-0.026,0.033-0.053,0.066-0.079,0.1c-0.299,0.362-0.54,0.786-0.702,1.281
		c0.069-0.326-0.139-0.388-0.491-0.089l0.047,0.588c0.407-0.24,0.244-1.858,0.564-2.162c0.095-0.083,0.183-0.173,0.261-0.27
		C217.526,129.261,218.232,130.348,218.304,129.968 M218.741,129.034l0.035,0.073c0.168-0.113,0.337-0.228,0.507-0.342l0.003-0.03
		C219.107,128.833,218.925,128.932,218.741,129.034 M213.266,134.105l0.006-0.001c0.136-0.025,0.24,0.065,0.325,0.177
		c0.05,0.098,0.116,0.2,0.192,0.296c-0.049-0.062-0.109-0.188-0.192-0.296c-0.058-0.119-0.089-0.233-0.081-0.341
		C213.436,133.998,213.35,134.05,213.266,134.105 M216.006,131.787c0-0.001,0.001-0.002,0.003-0.004
		C216.008,131.784,216.006,131.786,216.006,131.787 M215.702,130.879c0.099,0.286,0.232,0.575,0.29,0.784
		c0.031,0.059,0.036,0.095,0.019,0.117c0.017-0.021,0.013-0.058-0.019-0.117C215.935,131.455,215.801,131.166,215.702,130.879
		 M215.525,132.061c0.009,0.012,0.017,0.023,0.027,0.035C215.542,132.084,215.534,132.073,215.525,132.061 M215.744,131.787
		c0.009,0.001,0.017,0.002,0.027,0.004C215.761,131.789,215.752,131.788,215.744,131.787 M215.51,132.036
		c0.005,0.008,0.01,0.016,0.016,0.023C215.52,132.052,215.515,132.044,215.51,132.036 M215.736,131.786c0,0,0.001,0,0.003,0
		C215.738,131.786,215.736,131.786,215.736,131.786 M215.429,131.791c0.042-0.05,0.168-0.029,0.294-0.008
		c0.001,0,0.004,0.001,0.007,0.002c-0.002,0-0.005-0.002-0.007-0.002C215.597,131.762,215.471,131.741,215.429,131.791
		 M215.5,132.022c0.001,0.004,0.003,0.005,0.006,0.008C215.502,132.027,215.501,132.026,215.5,132.022 M213.678,133.791
		c0.03-0.026,0.061-0.053,0.083-0.081c0.095-0.115,0.112-0.259-0.052-0.48l-0.394,0.843c0.063-0.061,0.124-0.117,0.184-0.157
		c0.007-0.004,0.013-0.009,0.021-0.014c-0.003,0.012-0.004,0.024-0.006,0.037C213.577,133.893,213.631,133.846,213.678,133.791
		 M215.702,130.879c0.08-0.024,0.148-0.07,0.199-0.132c0.134-0.164,0.163-0.449,0.069-0.812c-0.155,0-0.256,0.044-0.317,0.118
		C215.515,130.222,215.583,130.549,215.702,130.879"/>
	<path fill="#FABB00" d="M184.491,217.177c-0.266-0.006-0.547,0.031-0.868,0.139c-0.354,0.001-0.409-0.313-0.54-0.627
		C183.542,216.872,184.014,217.033,184.491,217.177"/>
	<path fill="#FABB00" d="M186.235,217.852c-0.137-0.09-0.282-0.177-0.424-0.257l0.251,0.077L186.235,217.852L186.235,217.852z"/>
	<path fill="#FABB00" d="M188.136,218.775c-0.456-0.093-0.853-0.286-1.224-0.502C187.296,218.318,187.705,218.465,188.136,218.775"
		/>
	<path fill="#FABB00" d="M186.913,218.272c-0.289-0.032-0.569-0.006-0.827,0.062c0.079-0.04,0.148-0.087,0.194-0.139
		c0.079-0.09,0.092-0.198-0.035-0.336l-0.01-0.007C186.46,217.989,186.681,218.13,186.913,218.272"/>
	<path fill="#FABB00" d="M186.085,218.334c-0.197,0.102-0.473,0.168-0.599,0.229C185.674,218.468,185.875,218.389,186.085,218.334
		 M185.486,218.562c-0.003,0.003-0.01,0.006-0.014,0.007C185.477,218.568,185.482,218.564,185.486,218.562"/>
	<path fill="#FABB00" d="M193.678,226.477c-0.063,0.073-0.247,0.065-0.587-0.059c-2.667-1.071-4.37-1.843-6.684-2.972
		c-1.775-1.193-3.461-2.336-5.228-3.573c-0.522-0.283-1.068-0.411-1.614-0.551c0.746,0.11,1.502,0.227,2.328,0.38
		c1.115,0.125,1.775,1.962,3.28,2.822c0.062,0.064,0.136,0.01,0.224-0.089c0.036-0.042,0.075-0.092,0.115-0.141
		c0.04-0.051,0.082-0.104,0.125-0.153c0.157-0.178,0.333-0.306,0.517-0.109c1.054,0.735,1.866,1.652,2.991,1.989
		c0.421,0.419,1.661-0.586,2.077-0.171C192.091,224.415,193.948,226.171,193.678,226.477"/>
	<path fill="#FABB00" d="M176.608,214.939c-0.249,0.102-0.498,0.204-0.75,0.306c-0.362-0.218-0.48-0.428-0.369-0.553
		c0.055-0.06,0.158-0.101,0.313-0.115c-1.506,0-2.724-0.477-3.862-1.153c0.004-0.006,0.01-0.013,0.016-0.017
		c0.039-0.046,0.078-0.093,0.117-0.142c0.037-0.047,0.075-0.096,0.116-0.141c0.139-0.158,0.301-0.286,0.566-0.274
		c0.172,0.232,0.519,0.699,0.519,0.699C174.715,213.28,175.65,214.104,176.608,214.939"/>
	<path fill="#FABB00" d="M171.94,213.424l-0.075,0.081c-0.22-0.171-0.438-0.342-0.649-0.506l0.039-0.013
		C171.484,213.132,171.715,213.28,171.94,213.424"/>
	<path fill="#FABB00" d="M317.215,225.529c-2.206,2.502-5.169,1.935-10.247,4.693c0.253-0.158,0.431-0.301,0.544-0.429
		c1.251-1.42-5.588-0.892-9.149,2.225c-2.964,2.72-6.972,3.501-11.198,3.746c-4.236,0.28-8.683,0.019-12.741,0.899
		c-2.035,0.402-4.224,0.359-6.675,0.547c-6.339,1.084-12.535,1.041-18.774,0.675c-6.247-0.356-12.538-1.113-19.256-1.602
		c-3.559-0.332-6.522-1.88-9.383-2.861c-2.123-0.522-4.524-0.337-6.283-0.617c-2.753-0.503-5.031-1.411-7.164-2.366
		c2.469,0.711,4.243,1.411,7.032,2.104c0.342,0.07,0.524,0.058,0.587-0.014c0.281-0.319-1.826-1.812-2.765-2.305
		c-0.473-0.366-1.576,0.774-2.052,0.405c-1.148-0.242-2.097-0.932-3.239-1.562c-0.167-0.14-0.3-0.073-0.415,0.057
		c-0.066,0.076-0.128,0.174-0.184,0.269c-0.056,0.093-0.107,0.186-0.158,0.241c-0.053,0.059-0.102,0.083-0.154,0.042
		c-1.614-0.658-2.513-2.449-3.653-2.378c-0.851-0.017-1.62-0.033-2.374-0.047c-0.464-0.058-0.919-0.128-1.376-0.303
		c-0.266-0.175-0.54-0.354-0.814-0.536c-1.982-1.234-4.242-2.625-6.341-3.848l0.065-0.092c-0.251-0.105-0.501-0.22-0.751-0.34
		c0.753-0.386,2.726-0.566,2.726-0.566c0.829,0.271,1.645,0.536,2.45,0.799c0.82,0.22,1.63,0.438,2.43,0.653
		c1.608,0.402,3.174,0.834,4.75,1.142c0.18,0.283,0.28,0.584,0.638,0.523c0.297-0.145,0.575-0.215,0.84-0.241
		c0.462,0.087,0.922,0.174,1.378,0.258c0.151,0.066,0.305,0.134,0.458,0.203l0.011,0.008c0.16,0.138,0.145,0.26,0.05,0.366
		c-0.037,0.045-0.087,0.085-0.146,0.124c-0.207,0.081-0.405,0.188-0.583,0.311c0.113-0.078,0.388-0.18,0.583-0.311
		c0.251-0.098,0.52-0.158,0.816-0.158c-0.249-0.118-0.491-0.227-0.731-0.34l-0.194-0.157c1.054,0.183,2.091,0.402,3.151,0.534
		c0.232,0.078,0.457,0.149,0.635,0.226c0.722,0.305,1.443,0.61,2.031,0.134c0.187,0.023,0.376,0.049,0.567,0.072l-0.131,0.084
		l0.232-0.069c0.796,0.104,1.597,0.207,2.398,0.312c1.571,0.152,3.158,0.306,4.783,0.462c10.432,0.852,20.038,1.663,30.889,1.336
		c5.875-0.27,11.506-0.833,16.981-1.808c5.455-0.959,10.678-1.27,15.897-1.949c5.21-0.676,10.424-1.679,15.646-4.001
		c4.019-1.651,11.788-2.479,15.721-3.246c2.826,0.391,3.803,1.958,4.131,3.494c0.347,1.528-0.112,3.029-0.207,3.2
		C318.094,224.363,317.672,225.012,317.215,225.529 M217.536,227.192c0.716,0.332,1.733,0.282,2.612-0.168
		C219.258,226.368,218.362,226.72,217.536,227.192 M216.159,227.99c0.003,0,0.004-0.003,0.009-0.006
		c0.412-0.183,0.875-0.508,1.369-0.792c-0.494,0.283-0.957,0.609-1.369,0.792C216.163,227.987,216.162,227.99,216.159,227.99
		 M216.755,226.461c0.089,0.181,0.214,0.339,0.366,0.47C216.969,226.8,216.844,226.643,216.755,226.461 M216.006,228.064
		c0.033-0.008,0.069-0.021,0.105-0.043C216.075,228.042,216.04,228.056,216.006,228.064 M214.366,227.584
		c-0.007,0.01-0.016,0.02-0.024,0.029C214.351,227.604,214.359,227.593,214.366,227.584 M214.366,227.584l0.001-0.001
		L214.366,227.584L214.366,227.584z M208.765,225.401L208.765,225.401c-0.895-0.109-1.768-0.29-2.652-0.432
		c0.232,0.086,0.449,0.165,0.623,0.246c0.021,0.009,0.041,0.019,0.062,0.027c-0.035-0.001-0.066-0.001-0.099,0
		c0.185,0.078,0.375,0.151,0.571,0.209C207.802,225.666,208.317,225.766,208.765,225.401 M197.523,226.216l0.001-0.001
		L197.523,226.216L197.523,226.216z M198.034,225.406c-0.146,0.287-0.299,0.569-0.505,0.803
		C197.735,225.975,197.888,225.693,198.034,225.406 M197.323,226.411c0.009-0.007,0.017-0.013,0.024-0.02
		C197.34,226.398,197.332,226.404,197.323,226.411 M198.057,225.363c-0.004,0.004-0.006,0.007-0.008,0.011
		C198.051,225.37,198.053,225.367,198.057,225.363 M196.499,225.281c0.449,0.056,1.136-0.033,1.585,0.024
		C197.635,225.248,196.948,225.337,196.499,225.281 M194.786,223.226c-0.125,0.141,0.016,0.345,0.435,0.521l0.704-0.428
		c-1.096-0.652-2.143-1.38-3.537-0.903c0,0-0.418-0.417-0.625-0.623c-0.191,0.016-0.317,0.101-0.417,0.212
		c-0.12,0.135-0.197,0.313-0.299,0.467c1.235,0.517,2.518,0.826,4.025,0.618C194.934,223.121,194.836,223.17,194.786,223.226
		 M306.968,230.223c-0.164,0.104-0.36,0.214-0.59,0.331C306.577,230.438,306.775,230.329,306.968,230.223 M195.264,223.062
		c-0.064,0.01-0.127,0.02-0.191,0.027C195.127,223.078,195.192,223.068,195.264,223.062"/>
	<path fill="#FABB00" d="M207.987,225.591c-0.249-0.019-0.488-0.07-0.717-0.138c-0.156-0.063-0.313-0.136-0.472-0.211
		C207.164,225.256,207.559,225.358,207.987,225.591"/>
	<path fill="#FABB00" d="M208.767,225.403c-0.449,0.363-0.965,0.263-1.497,0.05c0.229,0.068,0.468,0.119,0.717,0.138
		c-0.428-0.233-0.824-0.335-1.189-0.349c-0.02-0.009-0.041-0.019-0.061-0.027c-0.175-0.082-0.392-0.16-0.626-0.247
		C206.998,225.111,207.871,225.292,208.767,225.403"/>
	<path fill="#009EE0" d="M260.375,207.501c-0.104,0.062-0.203,0.146-0.303,0.26c-0.049,0.054-0.099,0.116-0.147,0.189
		c-0.197,0.146-0.309-0.118-0.465-0.348L260.375,207.501L260.375,207.501z"/>
	<polygon fill="#009EE0" points="261.222,207.4 261.526,207.482 261.382,207.379 261.222,207.4 	"/>
	<path fill="#009EE0" d="M262.83,207.635c-0.279,0.081-0.553,0.05-0.814-0.012C262.241,207.522,262.508,207.507,262.83,207.635"/>
	<path fill="#009EE0" d="M262.014,207.622c-0.149,0.068-0.283,0.174-0.401,0.306c-0.016,0.017-0.031,0.036-0.047,0.055
		c0.092-0.181,0.134-0.369-0.033-0.499l-0.007-0.003C261.688,207.531,261.848,207.583,262.014,207.622"/>
	<path fill="#009EE0" d="M261.285,208.429c0.003-0.007,0.007-0.014,0.01-0.021C261.292,208.415,261.288,208.422,261.285,208.429
		 M261.295,208.407c0.079-0.154,0.169-0.297,0.271-0.425C261.484,208.147,261.351,208.305,261.295,208.407"/>
	<path fill="#009EE0" d="M267.85,212.924c-0.046,0.053-0.146,0.084-0.312,0.086c-1.75-0.044-2.896-0.26-4.478-0.427
		c-1.297-0.423-2.535-0.939-3.836-1.315c-0.363-0.042-0.699,0.066-1.038,0.163c0.442-0.206,0.892-0.41,1.392-0.608
		c0.652-0.359,1.498,1.138,2.559,1.363c0.019,0.014,0.035,0.011,0.049-0.004c0.042-0.046,0.061-0.211,0.086-0.383
		c0.027-0.172,0.06-0.352,0.126-0.425c0.041-0.046,0.091-0.053,0.16-0.003c0.777,0.3,1.46,0.813,2.18,0.774
		c0.102,0.073,0.214,0,0.329-0.13c0.076-0.086,0.154-0.197,0.231-0.309c0.078-0.113,0.155-0.225,0.229-0.312
		c0.115-0.128,0.226-0.198,0.328-0.126C266.521,211.502,268.132,212.604,267.85,212.924"/>
	<path fill="#009EE0" d="M255.055,209.208c-0.359-0.059-0.448-0.3-0.246-0.53c0.013-0.016,0.027-0.032,0.044-0.046
		c-0.842,0.648-1.647,0.746-2.458,0.629c0.056-0.286,0.065-0.607,0.231-0.794c0.023-0.026,0.049-0.05,0.079-0.07
		c0.155,0.135,0.467,0.402,0.467,0.402c0.008-0.009,0.017-0.017,0.024-0.026c0.729-0.827,1.455-0.494,2.197-0.162L255.055,209.208
		L255.055,209.208z"/>
	<path fill="#009EE0" d="M252.375,209.365c-0.167-0.059-0.333-0.116-0.494-0.174l0.021-0.029c0.165,0.041,0.332,0.072,0.495,0.099
		L252.375,209.365L252.375,209.365z"/>
	<path fill="#009EE0" d="M341.907,199.484c-1.205,1.369-2.957,1.042-5.489,3.174c0.034-0.034,0.064-0.067,0.095-0.101
		c0.666-0.755,0.039-1.175-1.026-1.096c-1.066,0.081-2.572,0.659-3.666,1.899c-0.193,0.221-0.374,0.461-0.538,0.722
		c-0.251,0.429-0.525,0.807-0.818,1.14c-3.291,3.733-8.953,1.744-13.233,3.604c-1.17,0.501-2.503,0.523-3.946,0.865
		c-7.329,2.838-14.682,2.077-22.66,3.524c-2.128,0.29-4.139-0.556-6.006-0.948c-1.334-0.044-2.668,0.711-3.735,0.842
		c-1.675,0.208-3.177-0.083-4.613-0.457c1.568,0.049,2.743,0.28,4.481,0.235c0.159-0.01,0.257-0.043,0.305-0.098
		c0.289-0.326-1.379-1.357-2.06-1.576c-0.099-0.064-0.198-0.004-0.3,0.109c-0.079,0.09-0.159,0.217-0.241,0.343
		c-0.081,0.128-0.162,0.253-0.243,0.345c-0.101,0.115-0.2,0.174-0.297,0.107c-0.711,0.073-1.416-0.395-2.208-0.652
		c-0.066-0.046-0.116-0.036-0.152,0.004c-0.066,0.075-0.09,0.26-0.107,0.437c-0.019,0.18-0.029,0.349-0.069,0.394
		c-0.012,0.014-0.027,0.017-0.045,0.006c-1.067-0.165-1.998-1.61-2.629-1.215c-0.478,0.24-0.92,0.461-1.352,0.677
		c-0.275,0.087-0.548,0.162-0.85,0.139c-0.192-0.083-0.391-0.168-0.589-0.256c-1.422-0.594-3.035-1.103-4.52-1.503l0.014-0.108
		c-0.168-0.008-0.337-0.028-0.508-0.054c0.086-0.164,0.221-0.343,0.375-0.519c0.434-0.493,1.015-0.955,1.015-0.955
		c2.139-0.128,4.151-0.308,6.101-0.624c0.169,0.217,0.299,0.476,0.49,0.314c0.06-0.1,0.126-0.187,0.188-0.258
		c0.078-0.087,0.155-0.157,0.235-0.212l0.851-0.149l0.31,0.062l-0.148-0.093l1.936-0.372c0.152,0.016,0.297,0.029,0.419,0.056
		c0.392,0.09,0.788,0.18,1.047-0.113c0.059-0.069,0.112-0.158,0.157-0.273l0.344-0.072l-0.057,0.113l0.121-0.126l1.458-0.323
		c0.951-0.22,1.913-0.441,2.893-0.667c6.294-1.52,12.176-2.273,18.689-3.843c3.516-0.934,6.863-1.976,10.099-3.263
		c6.441-2.522,12.821-2.086,18.977-6.363c2.375-1.535,7.248-1.945,9.735-2.34c3.68,1.247,3.048,6.617,2.943,6.938
		C342.759,198.175,342.375,198.956,341.907,199.484 M281.672,206.889c0.411,0.129,0.888-0.053,1.277-0.494
		c0.073-0.083,0.144-0.175,0.21-0.275c-0.451-0.292-0.803-0.131-1.101,0.207C281.919,206.484,281.792,206.681,281.672,206.889
		 M280.537,207.859c0.169,0.169,0.336,0.34,0.455,0.205C280.873,208.199,280.706,208.028,280.537,207.859 M281.042,207.984
		c-0.011,0.025-0.023,0.047-0.037,0.064C281.019,208.031,281.031,208.009,281.042,207.984 M281.672,206.889
		c-0.227,0.388-0.425,0.81-0.625,1.08c0,0.003-0.003,0.006-0.004,0.009c0.001-0.003,0.004-0.006,0.004-0.009
		C281.248,207.699,281.446,207.277,281.672,206.889 M281.057,206.364c0.082,0.138,0.175,0.249,0.277,0.334
		C281.231,206.612,281.138,206.501,281.057,206.364 M280.042,207.695c-0.049,0.061-0.092,0.164-0.131,0.323
		C279.951,207.859,279.994,207.755,280.042,207.695 M280.053,207.685v-0.001V207.685L280.053,207.685z M275.342,207.795
		c0.266,0.038,0.51,0.018,0.691-0.187c0.06-0.069,0.11-0.157,0.154-0.271l-1.625,0.33c0.155,0.013,0.299,0.027,0.417,0.055
		c0.014,0.003,0.029,0.006,0.042,0.009c-0.019,0.01-0.037,0.019-0.057,0.027C275.088,207.781,275.215,207.794,275.342,207.795
		 M274.464,207.646l0.01,0.004c0.172,0.119,0.141,0.306,0.059,0.493c-0.101,0.135-0.185,0.29-0.255,0.454
		c0.046-0.106,0.176-0.277,0.255-0.454c0.03-0.042,0.062-0.081,0.095-0.118c0.098-0.112,0.21-0.203,0.335-0.267
		C274.792,207.728,274.629,207.685,274.464,207.646 M269.17,210.84c0.27-0.086,0.634-0.379,0.904-0.465
		C269.804,210.461,269.44,210.754,269.17,210.84 M267.813,209.233c-0.231,0.263-0.132,0.521,0.257,0.553l0.293-0.621
		c-0.732-0.26-1.456-0.52-2.089,0.198c-0.043,0.049-0.087,0.104-0.128,0.161c0,0-0.34-0.243-0.51-0.364
		c-0.02,0.015-0.036,0.032-0.052,0.05c-0.172,0.197-0.148,0.534-0.177,0.83c0.825,0.053,1.62-0.103,2.418-0.821
		C267.822,209.225,267.818,209.229,267.813,209.233 M336.418,202.658c-0.094,0.093-0.204,0.19-0.335,0.292
		C336.196,202.848,336.309,202.75,336.418,202.658 M267.924,209.13c-0.033,0.03-0.064,0.06-0.098,0.09
		C267.856,209.188,267.888,209.16,267.924,209.13"/>
	<path fill="#BDCD00" d="M261.076,184.719c-0.191,0.095-0.382,0.235-0.576,0.455c-0.249,0.147-0.383-0.113-0.577-0.343
		L261.076,184.719L261.076,184.719z"/>
	<path fill="#BDCD00" d="M262.522,184.69c-0.125-0.032-0.254-0.057-0.38-0.079l0.204-0.021L262.522,184.69L262.522,184.69z"/>
	<path fill="#BDCD00" d="M264.158,184.831c-0.353,0.081-0.693,0.055-1.025-0.004C263.422,184.724,263.756,184.706,264.158,184.831"
		/>
	<path fill="#BDCD00" d="M263.134,184.827c-0.215,0.079-0.406,0.204-0.57,0.363c0.119-0.182,0.176-0.37-0.032-0.497l-0.01-0.003
		C262.725,184.738,262.925,184.788,263.134,184.827"/>
	<path fill="#BDCD00" d="M262.199,185.639c0.001-0.002,0.003-0.006,0.004-0.007C262.202,185.633,262.201,185.637,262.199,185.639
		 M262.204,185.632c0.069-0.107,0.146-0.208,0.229-0.302c0.042-0.048,0.087-0.095,0.132-0.14c-0.05,0.076-0.112,0.152-0.172,0.22
		c-0.018,0.02-0.032,0.038-0.047,0.055c-0.018,0.019-0.033,0.035-0.046,0.051C262.26,185.559,262.225,185.598,262.204,185.632"/>
	<path fill="#BDCD00" d="M270.33,190.133c-0.055,0.062-0.182,0.1-0.405,0.108c-2.192-0.038-3.632-0.332-5.594-0.459
		c-1.604-0.412-3.139-0.916-4.764-1.283c-0.454-0.058-0.877,0.035-1.303,0.115c0.558-0.18,1.129-0.363,1.754-0.562
		c0.821-0.366,1.851,1.126,3.168,1.343c0.026,0.015,0.049,0.007,0.067-0.014c0.047-0.053,0.076-0.208,0.111-0.371
		c0.034-0.162,0.076-0.333,0.151-0.417c0.053-0.059,0.121-0.078,0.215-0.02c0.965,0.295,1.804,0.796,2.704,0.759
		c0.422,0.251,1.007-1.101,1.425-0.853C268.682,188.753,270.628,189.794,270.33,190.133"/>
	<path fill="#BDCD00" d="M254.37,186.374c-0.421-0.055-0.547-0.268-0.358-0.482c0.027-0.031,0.062-0.062,0.105-0.093
		c-1.06,0.645-2.068,0.741-3.085,0.622c0.063-0.264,0.075-0.562,0.243-0.752c0.038-0.043,0.083-0.08,0.141-0.111
		c0.195,0.134,0.592,0.403,0.592,0.403c0.922-0.857,1.85-0.521,2.791-0.182L254.37,186.374L254.37,186.374z"/>
	<path fill="#BDCD00" d="M251.004,186.524c-0.208-0.059-0.417-0.118-0.619-0.174l0.024-0.027c0.207,0.037,0.417,0.071,0.622,0.098
		L251.004,186.524L251.004,186.524z"/>
	<g>
		<defs>
			<rect id="SVGID_1_" x="33.338" y="107.931" width="500.252" height="351.069"/>
		</defs>
		<clipPath id="SVGID_2_">
			<use xlink:href="#SVGID_1_"  overflow="visible"/>
		</clipPath>
		<path clip-path="url(#SVGID_2_)" fill="#BDCD00" d="M363.073,171.52c-1.485,1.685-3.701,1.482-6.93,3.993
			c0.075-0.069,0.141-0.135,0.195-0.198c0.718-0.812-0.18-1.125-1.581-0.863c-1.403,0.261-3.311,1.096-4.613,2.576
			c-0.141,0.157-0.272,0.323-0.397,0.496c-0.207,0.3-0.425,0.58-0.655,0.839c-4.043,4.584-11.37,2.995-16.896,5.272
			c-1.466,0.609-3.129,0.748-4.935,1.221c-9.2,3.431-18.411,3.117-28.423,4.988c-2.686,0.353-5.185-0.425-7.507-0.721
			c-1.66,0.035-3.358,0.817-4.705,0.956c-2.112,0.221-3.974,0.005-5.759-0.328c1.96,0.005,3.413,0.168,5.6,0.108
			c0.218-0.013,0.345-0.053,0.397-0.114c0.305-0.344-1.715-1.332-2.551-1.53c-0.162-0.083-0.332,0.058-0.507,0.256
			c-0.061,0.068-0.122,0.142-0.181,0.216c-0.059,0.075-0.119,0.148-0.179,0.216c-0.177,0.199-0.349,0.342-0.511,0.258
			c-0.891,0.096-1.756-0.35-2.739-0.58c-0.092-0.046-0.158-0.03-0.206,0.024c-0.075,0.085-0.108,0.262-0.132,0.433
			c-0.027,0.169-0.046,0.333-0.093,0.386c-0.016,0.02-0.037,0.025-0.062,0.011c-1.33-0.133-2.462-1.605-3.263-1.205
			c-0.616,0.227-1.172,0.456-1.715,0.684c-0.347,0.093-0.693,0.174-1.067,0.156c-0.237-0.079-0.481-0.162-0.728-0.243
			c-1.761-0.574-3.762-1.009-5.617-1.475l0.021-0.107c-0.211-0.014-0.424-0.039-0.638-0.068c0.037-0.052,0.08-0.105,0.129-0.162
			c0.517-0.586,1.652-1.278,1.652-1.276c2.687-0.124,5.209-0.411,7.664-0.714c0.208,0.218,0.362,0.477,0.606,0.317
			c0.026-0.033,0.052-0.062,0.076-0.092c0.152-0.171,0.31-0.292,0.466-0.377l1.072-0.148l0.388,0.062l-0.184-0.093l2.433-0.434
			c0.189,0.008,0.374,0.016,0.523,0.041c0.521,0.081,1.044,0.162,1.374-0.212c0.052-0.061,0.101-0.132,0.143-0.216l0.435-0.085
			l-0.075,0.117l0.152-0.132c0.608-0.117,1.221-0.236,1.834-0.354c1.197-0.244,2.407-0.455,3.639-0.728
			c7.902-1.817,15.277-2.749,23.416-4.811c4.406-1.1,8.575-2.49,12.619-3.982c8.027-3.08,15.956-3.211,23.572-8.178
			c2.938-1.794,8.956-2.758,12.015-3.462c4.532,0.807,3.851,6.305,3.719,6.647C364.013,170.129,363.586,170.938,363.073,171.52
			 M287.791,183.837c0.58,0.146,1.276-0.138,1.807-0.739c0.022-0.028,0.049-0.057,0.073-0.087c-0.67-0.327-1.183,0.005-1.613,0.496
			C287.966,183.611,287.877,183.722,287.791,183.837 M286.963,184.956c-0.002,0.002-0.004,0.006-0.007,0.009
			C286.959,184.962,286.961,184.958,286.963,184.956 M287.029,184.874L287.029,184.874L287.029,184.874L287.029,184.874z
			 M287.234,184.615c-0.065,0.091-0.132,0.175-0.198,0.251C287.103,184.79,287.169,184.706,287.234,184.615 M286.979,184.928
			c0.007-0.01,0.017-0.018,0.025-0.027C286.996,184.91,286.986,184.918,286.979,184.928 M287.478,184.275
			c-0.072,0.103-0.143,0.204-0.211,0.298C287.335,184.479,287.405,184.378,287.478,184.275 M287.782,183.846
			c-0.078,0.104-0.152,0.211-0.228,0.318C287.63,184.057,287.704,183.951,287.782,183.846 M285.708,184.69
			c0.186-0.209,0.411-0.042,0.631,0.133C286.119,184.649,285.894,184.481,285.708,184.69 M287.034,183.32
			c0.068,0.095,0.146,0.179,0.227,0.248C287.181,183.499,287.103,183.415,287.034,183.32 M285.559,184.983
			c-0.004,0.01-0.009,0.019-0.013,0.031C285.55,185.002,285.555,184.993,285.559,184.983 M285.659,184.754
			c-0.036,0.058-0.068,0.128-0.098,0.217C285.591,184.882,285.623,184.812,285.659,184.754 M285.666,184.745
			c-0.002,0.003-0.004,0.007-0.007,0.009C285.662,184.752,285.664,184.748,285.666,184.745 M285.686,184.718
			c-0.005,0.005-0.009,0.012-0.012,0.017C285.677,184.73,285.681,184.724,285.686,184.718 M285.699,184.698v0.001V184.698
			L285.699,184.698z M279.843,184.909c0.36,0.029,0.692-0.006,0.926-0.273c0.053-0.058,0.102-0.13,0.144-0.214l-2.041,0.387
			c-0.041-0.006-0.083-0.012-0.124-0.019l0.011,0.006c0.213,0.112,0.169,0.301,0.061,0.491c-0.015,0.016-0.029,0.031-0.043,0.046
			c-0.112,0.128-0.213,0.269-0.296,0.417c0.059-0.106,0.231-0.278,0.339-0.462c0.155-0.169,0.334-0.309,0.549-0.401
			c-0.168-0.027-0.332-0.051-0.494-0.077c0.191,0.008,0.369,0.014,0.516,0.039c0.016,0.004,0.033,0.007,0.049,0.009
			c-0.024,0.009-0.047,0.019-0.07,0.029C279.524,184.903,279.682,184.914,279.843,184.909 M272.024,188.032
			c0.337-0.093,0.804-0.396,1.143-0.488C272.829,187.636,272.362,187.938,272.024,188.032 M270.31,186.512
			c-0.215,0.244-0.082,0.465,0.366,0.487l0.383-0.629c-0.972-0.267-1.929-0.505-2.788,0.379c0,0-0.419-0.251-0.627-0.376
			c-0.044,0.026-0.082,0.059-0.114,0.095c-0.172,0.195-0.156,0.505-0.196,0.78c1.029,0.079,2.026-0.061,3.043-0.803
			C270.351,186.468,270.328,186.491,270.31,186.512 M356.144,175.513c-0.114,0.105-0.254,0.218-0.421,0.338
			C355.865,175.733,356.006,175.621,356.144,175.513 M270.512,186.343c-0.045,0.035-0.091,0.069-0.135,0.102
			C270.416,186.412,270.46,186.377,270.512,186.343"/>
		<path clip-path="url(#SVGID_2_)" fill="#707173" d="M533.185,388.719c0.14-1.502-3.992-3.628-5.316-4.63
			c-1.621-0.753-5.333-1.003-8.233,1.252c-10.021,7.135-29.023,19.779-29.98,34.425c-1.059,16.648,26.683,15.522,26.601,21.655
			c0,4.257-20.025,10.642-20.999,11.892c-2.318,2.504-0.654,5.136,2.829,5.259c1.458,0.25,25.123-11.142,25.403-16.271
			c0.446-7.512-5.761-8.517-12.846-11.642c-7.73-3.008-14.44-4.007-14.302-11.895c0.015-3.631,4.558-11.642,11.662-17.151
			c11.456-8.887,13.296-11.515,17.576-11.642c1.001,0,2.112,1.503,4.49,1.503C532.324,391.474,533.193,390.098,533.185,388.719
			 M473.572,402.366c-3.911,3.002-6.737,4.131-10.265,6.383c-5.331,3.257-15.222,5.385-15.222,5.385s5.877-5.635,11.201-8.137
			C467.482,402.116,473.572,402.366,473.572,402.366 M493.34,420.892c-2.983-2.255-5.532,2.252-6.842,4.007
			c-1.562,1.753-23.325,17.274-33.28,17.648c-5.303,0.252-7.756-2.879-9.346-6.633c-3.848-8.014-0.047-14.648-0.047-14.648
			c8.328-2.502,14.748-4.128,20.537-7.133c9.917-5.133,21.948-13.02,20.541-14.272c-11.509-9.263-41.205,2.255-48.456,20.655
			c-4.086,10.39-0.036,22.907,8.582,27.29c12.748,6.509,42.435-17.024,45.873-18.776
			C494.136,427.025,496.176,423.271,493.34,420.892 M442.6,386.341c-2.719-3.755-7.297,3.757-8.188,5.259
			c-0.597,1.25-12.906,14.27-22.499,24.659c-9.637,10.642-18.967,21.657-18.967,21.657c-0.546-4.004-0.583-6.635-0.79-9.013
			c-0.647-8.388,0.014-10.014-0.51-16.275c-0.892-7.008-4.185-11.768-7.629-9.263c-2.039,1.628-0.205,8.264,0.473,11.518
			c0.552,3.255,0.863,14.27,2.028,25.412c0.288,2.628,0.119,7.135,2.504,8.514c3.402,2.002,7.438-3.131,9.367-6.262
			c2.796-4.504,29.625-36.678,36.075-41.308C439.804,397.233,445.522,390.348,442.6,386.341 M377.889,402.616
			c0.971-3.381-0.758-5.633-3.159-5.509c-4.175,0.249-4.932,7.388-6.521,14.272c-4.688,20.904-8.332,33.046-5.952,35.175
			c2.254,2.128,5.456,1.002,6.14-0.75c2.408-5.133-1.243-2.881,1.125-12.771C370.633,428.151,376.896,406.12,377.889,402.616
			 M385.514,360.803c0.647-2.252-0.548-4.004-2.425-4.004c-3.254,0-2.885,2.878-6.341,8.261c-3.893,5.759-4.423,10.892-3.266,12.144
			c0.949,1.003,2.731,0.124,3.638-0.752c1.574-1.126,0.949-3.255,3.643-7.885C383.098,364.56,385.1,362.432,385.514,360.803
			 M368.597,394.978c0.324-3.254-4.205-3.128-6.812-3.254c-10.176-0.5-20.045,1.502-20.045,1.502
			c2.562-8.135,3.668-10.14,5.742-17.65c3.349-11.892,2.279-15.772-0.723-15.772c-4.257,0-3.704,7.512-4.483,10.516
			c-3.68,13.771-7.243,24.033-7.243,24.033c-7.864,2.005-9.602,2.631-17.223,5.386c-7.349,2.628-7.776,3.628-8.731,5.506
			c-1.003,2.129,0.714,3.757,2.981,4.381c1.437,0.376,3.402-2.252,9.499-4.881c4.881-2.128,11.258-3.504,11.258-3.504
			c-1.574,5.38-2.517,7.885-4.961,16.774c-3.627,12.768-4.621,20.528-5.99,26.161c-0.242,1.376-0.794,6.636,3.169,6.886
			c5.441,0.376,3.996-5.633,4.069-6.759c2.06-16.651,10.464-44.441,10.464-44.441c4.684-1.002,13.633-2.754,21.393-2.754
			C363.091,397.107,368.164,398.859,368.597,394.978 M308.654,425.399c0.684-1.752-0.671-4.007-3.227-3.004
			c-1.591,0.499-45.341,26.414-56.263,18.776c-11.584-8.138,17.814-34.299,21.622-35.302c2.512-0.749,4.514,1.379,6.614,0.127
			c4.91-3.005,7.752-9.89-1.379-8.514c-13.249,2.005-43.191,32.673-35.406,45.316C251.973,461.453,308.265,426.901,308.654,425.399
			 M226.841,402.366c-3.911,3.002-6.737,4.131-10.264,6.383c-5.33,3.257-15.219,5.385-15.219,5.385s5.875-5.635,11.199-8.137
			C220.751,402.116,226.841,402.366,226.841,402.366 M246.608,420.892c-2.984-2.255-5.529,2.252-6.84,4.007
			c-1.561,1.753-23.327,17.274-33.282,17.648c-5.303,0.252-7.755-2.879-9.345-6.633c-3.845-8.014-0.046-14.648-0.046-14.648
			c8.329-2.502,14.75-4.128,20.536-7.133c9.918-5.133,21.95-13.02,20.543-14.272c-11.512-9.263-41.207,2.255-48.458,20.655
			c-4.084,10.39-0.033,22.907,8.583,27.29c12.748,6.509,42.435-17.024,45.873-18.776
			C247.404,427.025,249.443,423.271,246.608,420.892 M197.3,359.051c-2.246-2.879-4.11-2.252-5.98-0.877
			c-1.745,1.379-4.144,12.145-8.515,28.417c-5.733,21.154-17.553,65.472-14.342,67.85c5.383,4.257,6.817-3.88,7.244-7.011
			c1.067-11.016,4.716-28.166,9.654-44.814C196.167,366.186,199.318,361.805,197.3,359.051 M176.646,359.051
			c-2.246-2.879-4.109-2.252-5.98-0.877c-1.745,1.379-4.143,12.145-8.514,28.417c-5.734,21.154-17.554,65.472-14.343,67.85
			c5.383,4.257,6.817-3.88,7.244-7.011c1.067-11.016,4.718-28.166,9.655-44.814C175.512,366.186,178.663,361.805,176.646,359.051
			 M136.155,410.5c2.018,7.011-1.074,13.896-5.603,20.405c-3.408,5.133-14.584,13.146-19.968,11.018
			c-5.28-2.005-5.164-11.894-2.358-17.15c9.842-18.903,20.35-20.278,20.35-20.278l-0.015-0.627
			C134.062,404.621,135.189,406.747,136.155,410.5 M142.952,415.259c0.388-14.27-9.672-18.276-14.495-17.903
			c-6.723,0.503-14.94,6.636-24.754,22.537c-7.693,12.391-3.515,24.909,1.837,27.913
			C114.32,452.689,142.182,438.792,142.952,415.259 M103.233,425.399c0.685-1.752-0.67-4.007-3.225-3.004
			c-1.59,0.499-45.343,26.414-56.264,18.776c-11.583-8.138,17.816-34.299,21.623-35.302c2.511-0.749,4.514,1.379,6.613,0.127
			c4.911-3.005,7.751-9.89-1.379-8.514c-13.247,2.005-43.19,32.673-35.405,45.316C46.553,461.453,102.843,426.901,103.233,425.399"
			/>
	</g>
	<path fill="#707173" d="M481.28,323.589c0.239,15.646,9.866,26.115,23.708,26.115c15.162,0,24.79-11.312,24.79-27.678
		c0-11.073-4.814-17.209-15.645-21.423c-6.859-2.647-12.997-3.73-17.089-6.738c-3.491-2.648-5.056-5.776-5.056-10.229
		c0-8.426,5.776-14.683,14.442-14.683c7.821,0,12.756,5.174,13.6,14.561h7.941c-0.843-14.561-8.905-22.623-21.541-22.623
		c-13.839,0-22.865,9.987-22.865,23.226c0,11.19,5.656,17.09,17.689,21.181c11.914,3.972,20.098,5.896,20.098,18.291
		c0,10.472-6.137,17.331-16.246,17.331c-9.026,0-15.404-6.62-15.646-17.331H481.28L481.28,323.589z M433.865,300.846v-29.967h35.981
		v-8.425H425.44v85.563h44.406v-8.301h-35.981V309.27h35.981v-8.424H433.865L433.865,300.846z M409.555,262.455h-8.423v85.563h8.423
		V262.455L409.555,262.455z M336.388,306.984v7.58h43.203c-3.851,16.366-17.933,27.078-33.215,27.078
		c-19.616,0-35.262-15.525-35.262-36.824c0-19.015,14.804-35.864,35.142-35.864c11.553,0,20.458,4.935,28.401,15.044h10.35
		c-7.942-14.803-21.54-23.226-38.269-23.226c-12.637,0-22.746,4.09-31.171,12.394c-8.785,8.666-13.356,19.617-13.356,31.529
		c0,25.636,18.895,45.01,43.443,45.01c23.708,0,42.481-17.45,43.925-42.721H336.388L336.388,306.984z M246.732,270.879h12.394
		c8.064,0,14.08,0,18.774,4.212c4.093,3.731,6.138,8.664,6.138,14.681c0,9.749-7.22,16.97-18.293,16.97h-8.062l25.393,41.275h9.989
		l-20.7-33.454c12.035-0.842,20.7-11.914,20.7-24.912c0-8.905-4.213-17.448-11.072-22.262c-6.018-4.212-12.518-4.935-20.58-4.935
		h-22.985v85.563h8.304V270.879L246.732,270.879z M187.642,300.846v-29.967h35.983v-8.425h-44.408v85.563h44.408v-8.301h-35.983
		V309.27h35.983v-8.424H187.642L187.642,300.846z M155.752,337.79l-46.935-75.335H98.708v85.563h8.304l-0.963-75.454l46.934,75.454
		h10.108v-85.563h-8.303L155.752,337.79L155.752,337.79z M46.96,300.846v-29.967h35.984v-8.425H38.537v85.563h44.408v-8.301H46.96
		V309.27h35.984v-8.424H46.96L46.96,300.846z M59.717,254.151l15.764-20.579h-8.905l-12.275,20.579H59.717L59.717,254.151z"/>
</g>
</svg>
